<?xml version="1.0" encoding="utf-8"?>
<!-- Generator: Adobe Illustrator 16.0.0, SVG Export Plug-In . SVG Version: 6.00 Build 0)  -->
<!DOCTYPE svg PUBLIC "-//W3C//DTD SVG 1.1//EN" "http://www.w3.org/Graphics/SVG/1.1/DTD/svg11.dtd">
<svg version="1.1" id="Layer_1" xmlns="http://www.w3.org/2000/svg" xmlns:xlink="http://www.w3.org/1999/xlink" x="0px" y="0px"
	 width="95.669px" height="28.346px" viewBox="0 0 95.669 28.346" enable-background="new 0 0 95.669 28.346" xml:space="preserve">
<g>
	<g>
		<path fill="#132445" d="M741.26,412.953h-88.581c-1.984,0-3.544-1.63-3.544-3.543v-21.26c0-1.984,1.631-3.543,3.544-3.543h88.581
			c1.985,0,3.544,1.629,3.544,3.543v21.26C744.804,411.394,743.245,412.953,741.26,412.953z"/>
	</g>
	<g>
		<g>
			<path fill="#A7A6A6" d="M741.26,385.173c1.631,0,2.978,1.346,2.978,2.977v21.26c0,1.63-1.347,2.977-2.978,2.977h-88.581
				c-1.63,0-2.977-1.347-2.977-2.977v-21.26c0-1.631,1.347-2.977,2.977-2.977H741.26 M741.26,384.607h-88.581
				c-1.913,0-3.544,1.629-3.544,3.543v21.26c0,1.984,1.631,3.543,3.544,3.543h88.581c1.985,0,3.544-1.63,3.544-3.543v-21.26
				C744.804,386.236,743.245,384.607,741.26,384.607L741.26,384.607z"/>
		</g>
	</g>
	<g id="_Group_2">
		<g id="_Group_3">
			<path id="_Path_" fill="#FFFFFF" d="M669.146,399.383c0-1.358,0.719-2.638,1.918-3.356c-0.72-1.039-1.918-1.678-3.197-1.758
				c-1.358-0.16-2.637,0.799-3.356,0.799s-1.759-0.799-2.878-0.799c-1.518,0.08-2.877,0.879-3.596,2.157
				c-1.52,2.638-0.4,6.634,1.118,8.792c0.72,1.039,1.599,2.237,2.718,2.237c1.119-0.079,1.519-0.719,2.877-0.719
				c1.359,0,1.679,0.719,2.877,0.719c1.199,0,1.919-1.038,2.639-2.157c0.559-0.72,0.959-1.599,1.198-2.479
				C670.025,402.341,669.146,400.902,669.146,399.383z"/>
			<path id="_Path_2" fill="#FFFFFF" d="M666.908,392.91c0.64-0.799,0.959-1.758,0.879-2.797c-0.959,0.08-1.918,0.559-2.557,1.358
				c-0.64,0.72-0.96,1.679-0.88,2.718C665.39,394.189,666.27,393.708,666.908,392.91z"/>
		</g>
	</g>
	<g>
		<path fill="#FFFFFF" d="M684.495,404.078h-3.756l-0.88,2.717h-1.599l3.597-9.91h1.599l3.597,9.91h-1.599L684.495,404.078z
			 M681.138,402.878h3.037l-1.518-4.396h-0.08L681.138,402.878z"/>
		<path fill="#FFFFFF" d="M694.806,403.199c0,2.237-1.199,3.676-3.037,3.676c-0.959,0.08-1.839-0.479-2.238-1.278l0,0v3.597h-1.519
			v-9.592h1.438v1.199l0,0c0.479-0.799,1.359-1.278,2.318-1.278C693.526,399.442,694.806,400.96,694.806,403.199z M693.206,403.199
			c0-1.439-0.719-2.398-1.918-2.398c-1.118,0-1.918,0.959-1.918,2.398c0,1.438,0.8,2.397,1.918,2.397
			C692.487,405.596,693.206,404.636,693.206,403.199z"/>
		<path fill="#FFFFFF" d="M702.718,403.199c0,2.237-1.199,3.676-3.037,3.676c-0.959,0.08-1.838-0.479-2.238-1.278l0,0v3.597h-1.519
			v-9.592h1.438v1.199l0,0c0.48-0.799,1.359-1.278,2.318-1.278C701.519,399.442,702.718,400.96,702.718,403.199z M701.199,403.199
			c0-1.439-0.72-2.398-1.918-2.398c-1.119,0-1.919,0.959-1.919,2.398c0,1.438,0.8,2.397,1.919,2.397
			C700.479,405.596,701.199,404.636,701.199,403.199L701.199,403.199z"/>
		<path fill="#FFFFFF" d="M707.993,403.998c0.079,0.959,1.039,1.599,2.396,1.599c1.279,0,2.158-0.64,2.158-1.519
			c0-0.799-0.559-1.199-1.838-1.519l-1.278-0.319c-1.839-0.48-2.638-1.279-2.638-2.639c0-1.678,1.519-2.877,3.596-2.877
			c2.079,0,3.518,1.199,3.598,2.877h-1.519c-0.08-0.959-0.88-1.598-2.079-1.598c-1.198,0-1.997,0.639-1.997,1.519
			c0,0.719,0.56,1.118,1.838,1.438l1.119,0.24c1.998,0.479,2.877,1.278,2.877,2.717c0,1.838-1.519,3.037-3.837,3.037
			c-2.237,0-3.676-1.119-3.756-2.957H707.993z"/>
		<path fill="#FFFFFF" d="M717.264,397.843v1.679h1.359v1.199h-1.359v3.995c0,0.64,0.24,0.88,0.88,0.88c0.159,0,0.319,0,0.479,0
			v1.198c-0.24,0.08-0.56,0.08-0.8,0.08c-1.438,0-1.998-0.56-1.998-1.918V400.8h-1.039v-1.199h1.039v-1.678h1.438V397.843z"/>
		<path fill="#FFFFFF" d="M719.502,403.199c0-2.238,1.358-3.677,3.437-3.677s3.437,1.438,3.437,3.677
			c0,2.317-1.358,3.676-3.437,3.676C720.78,406.875,719.502,405.436,719.502,403.199z M724.856,403.199
			c0-1.599-0.719-2.478-1.918-2.478s-1.918,0.879-1.918,2.478c0,1.598,0.719,2.477,1.918,2.477S724.856,404.716,724.856,403.199
			L724.856,403.199z"/>
		<path fill="#FFFFFF" d="M727.574,399.522h1.438v1.278l0,0c0.159-0.799,0.959-1.358,1.758-1.278c0.16,0,0.32,0,0.479,0.079v1.359
			c-0.239-0.08-0.479-0.08-0.639-0.08c-0.8,0-1.52,0.64-1.52,1.438c0,0.08,0,0.16,0,0.239v4.316h-1.518V399.522z"/>
		<path fill="#FFFFFF" d="M738.124,404.636c-0.239,1.279-1.519,2.238-3.117,2.238c-2.078,0-3.437-1.438-3.437-3.676
			c0-2.238,1.278-3.757,3.356-3.757c1.998,0,3.276,1.358,3.276,3.597v0.479h-5.115v0.08c-0.079,1.038,0.641,1.918,1.679,2.077
			c0.08,0,0.16,0,0.24,0c0.72,0.08,1.438-0.319,1.679-1.039H738.124z M733.088,402.479h3.598c0.08-0.959-0.72-1.758-1.679-1.839
			c-0.08,0-0.08,0-0.16,0C733.888,400.64,733.088,401.44,733.088,402.479L733.088,402.479z"/>
	</g>
	<g>
		<path fill="#FFFFFF" d="M678.261,394.076v-5.544h1.91c0.431,0,0.76,0.026,0.986,0.079c0.318,0.074,0.589,0.205,0.813,0.397
			c0.292,0.247,0.511,0.563,0.656,0.947c0.145,0.384,0.218,0.823,0.218,1.317c0,0.422-0.05,0.795-0.148,1.119
			c-0.098,0.326-0.225,0.596-0.378,0.809s-0.322,0.381-0.505,0.502c-0.183,0.123-0.403,0.215-0.662,0.278
			c-0.258,0.063-0.555,0.095-0.891,0.095H678.261z M678.994,393.421h1.185c0.365,0,0.651-0.034,0.859-0.102
			c0.209-0.068,0.374-0.164,0.498-0.288c0.174-0.174,0.309-0.407,0.406-0.702c0.097-0.293,0.146-0.648,0.146-1.068
			c0-0.579-0.095-1.025-0.286-1.336c-0.189-0.312-0.421-0.52-0.693-0.626c-0.197-0.075-0.514-0.113-0.949-0.113h-1.165V393.421z"/>
		<path fill="#FFFFFF" d="M683.771,389.314v-0.782h0.681v0.782H683.771z M683.771,394.076v-4.016h0.681v4.016H683.771z"/>
		<path fill="#FFFFFF" d="M685.216,392.876l0.673-0.105c0.038,0.27,0.143,0.477,0.315,0.62s0.414,0.216,0.725,0.216
			c0.313,0,0.544-0.064,0.695-0.191s0.227-0.277,0.227-0.447c0-0.154-0.066-0.275-0.2-0.363c-0.093-0.061-0.325-0.139-0.696-0.23
			c-0.498-0.127-0.845-0.236-1.037-0.328c-0.193-0.092-0.34-0.219-0.439-0.381c-0.1-0.164-0.148-0.344-0.148-0.539
			c0-0.18,0.041-0.346,0.122-0.498c0.082-0.152,0.194-0.279,0.335-0.38c0.105-0.078,0.25-0.144,0.434-0.198
			c0.182-0.055,0.378-0.082,0.588-0.082c0.314,0,0.592,0.046,0.83,0.137c0.238,0.09,0.414,0.213,0.527,0.369
			c0.113,0.154,0.191,0.361,0.234,0.622l-0.666,0.091c-0.03-0.207-0.117-0.369-0.263-0.484c-0.146-0.116-0.35-0.174-0.614-0.174
			c-0.313,0-0.536,0.051-0.67,0.154c-0.133,0.104-0.2,0.225-0.2,0.363c0,0.088,0.028,0.168,0.083,0.238
			c0.056,0.073,0.143,0.134,0.262,0.182c0.068,0.025,0.269,0.083,0.601,0.174c0.481,0.129,0.817,0.234,1.008,0.316
			s0.34,0.201,0.448,0.357s0.162,0.35,0.162,0.582c0,0.227-0.065,0.439-0.197,0.641c-0.133,0.201-0.324,0.355-0.573,0.465
			c-0.25,0.109-0.532,0.164-0.848,0.164c-0.521,0-0.919-0.107-1.192-0.324S685.291,393.302,685.216,392.876z"/>
		<path fill="#FFFFFF" d="M689.36,395.615v-5.555h0.619v0.521c0.146-0.205,0.312-0.357,0.496-0.459
			c0.184-0.104,0.406-0.154,0.669-0.154c0.343,0,0.646,0.089,0.907,0.266c0.263,0.176,0.461,0.425,0.594,0.746
			c0.134,0.322,0.201,0.674,0.201,1.057c0,0.412-0.074,0.781-0.222,1.11s-0.362,0.581-0.643,0.757
			c-0.281,0.175-0.577,0.262-0.888,0.262c-0.227,0-0.43-0.047-0.61-0.143s-0.328-0.217-0.444-0.363v1.955H689.36z M689.976,392.089
			c0,0.518,0.105,0.899,0.314,1.146s0.463,0.371,0.76,0.371c0.303,0,0.562-0.129,0.777-0.384c0.215-0.257,0.323-0.653,0.323-1.19
			c0-0.512-0.105-0.895-0.315-1.148c-0.211-0.256-0.463-0.383-0.755-0.383c-0.29,0-0.546,0.137-0.77,0.406
			C690.088,391.18,689.976,391.574,689.976,392.089z"/>
		<path fill="#FFFFFF" d="M693.413,392.068c0-0.744,0.207-1.295,0.621-1.652c0.345-0.299,0.766-0.447,1.263-0.447
			c0.552,0,1.003,0.182,1.354,0.543s0.525,0.861,0.525,1.5c0,0.516-0.077,0.923-0.232,1.219c-0.155,0.297-0.38,0.527-0.677,0.69
			c-0.296,0.163-0.619,0.245-0.97,0.245c-0.563,0-1.017-0.18-1.363-0.54S693.413,392.746,693.413,392.068z M694.113,392.068
			c0,0.514,0.112,0.898,0.337,1.155c0.224,0.255,0.506,0.384,0.847,0.384c0.338,0,0.618-0.129,0.843-0.386s0.337-0.649,0.337-1.177
			c0-0.496-0.112-0.873-0.339-1.129c-0.226-0.256-0.506-0.383-0.841-0.383c-0.341,0-0.623,0.127-0.847,0.381
			C694.226,391.169,694.113,391.553,694.113,392.068z"/>
		<path fill="#FFFFFF" d="M697.974,394.076v-4.016h0.613v0.57c0.295-0.441,0.721-0.662,1.277-0.662c0.242,0,0.465,0.044,0.668,0.131
			s0.355,0.201,0.455,0.342c0.102,0.142,0.172,0.309,0.213,0.504c0.024,0.125,0.037,0.346,0.037,0.662v2.469h-0.681v-2.443
			c0-0.277-0.026-0.484-0.079-0.621c-0.053-0.139-0.146-0.248-0.281-0.329c-0.136-0.083-0.293-0.124-0.475-0.124
			c-0.291,0-0.541,0.092-0.751,0.277c-0.211,0.184-0.315,0.533-0.315,1.047v2.193H697.974z"/>
		<path fill="#FFFFFF" d="M702.285,389.314v-0.782h0.681v0.782H702.285z M702.285,394.076v-4.016h0.681v4.016H702.285z"/>
		<path fill="#FFFFFF" d="M704.63,394.076h-0.632v-5.544h0.681v1.978c0.287-0.36,0.654-0.541,1.101-0.541
			c0.247,0,0.48,0.051,0.701,0.15s0.402,0.238,0.545,0.42c0.142,0.18,0.254,0.396,0.335,0.652c0.08,0.254,0.121,0.525,0.121,0.816
			c0,0.688-0.171,1.22-0.512,1.596c-0.34,0.375-0.748,0.563-1.225,0.563c-0.475,0-0.846-0.197-1.115-0.594V394.076z
			 M704.622,392.037c0,0.482,0.065,0.83,0.196,1.045c0.214,0.351,0.505,0.525,0.87,0.525c0.297,0,0.555-0.129,0.771-0.389
			c0.217-0.258,0.325-0.643,0.325-1.154c0-0.525-0.104-0.912-0.312-1.161c-0.209-0.249-0.46-0.374-0.755-0.374
			c-0.298,0-0.555,0.129-0.771,0.387C704.73,391.174,704.622,391.548,704.622,392.037z"/>
		<path fill="#FFFFFF" d="M708.294,394.076v-5.544h0.681v5.544H708.294z"/>
		<path fill="#FFFFFF" d="M712.778,392.783l0.704,0.086c-0.111,0.412-0.316,0.73-0.616,0.957c-0.301,0.227-0.684,0.34-1.15,0.34
			c-0.587,0-1.053-0.18-1.396-0.542c-0.345-0.362-0.517-0.869-0.517-1.522c0-0.676,0.174-1.199,0.522-1.572
			c0.348-0.373,0.799-0.561,1.354-0.561c0.537,0,0.976,0.184,1.315,0.549c0.341,0.365,0.511,0.88,0.511,1.543
			c0,0.041-0.002,0.101-0.004,0.182h-2.995c0.025,0.441,0.15,0.779,0.374,1.014c0.225,0.234,0.505,0.352,0.84,0.352
			c0.25,0,0.463-0.066,0.639-0.197C712.536,393.279,712.675,393.07,712.778,392.783z M710.544,391.682h2.242
			c-0.03-0.339-0.115-0.591-0.257-0.761c-0.217-0.262-0.498-0.393-0.844-0.393c-0.313,0-0.575,0.104-0.788,0.313
			S710.566,391.332,710.544,391.682z"/>
		<path fill="#FFFFFF" d="M716.216,392.876l0.674-0.105c0.037,0.27,0.143,0.477,0.315,0.62s0.414,0.216,0.724,0.216
			c0.313,0,0.545-0.064,0.696-0.191s0.228-0.277,0.228-0.447c0-0.154-0.067-0.275-0.201-0.363c-0.094-0.061-0.325-0.139-0.695-0.23
			c-0.5-0.127-0.846-0.236-1.039-0.328c-0.192-0.092-0.338-0.219-0.438-0.381c-0.1-0.164-0.15-0.344-0.15-0.539
			c0-0.18,0.041-0.346,0.123-0.498s0.193-0.279,0.335-0.38c0.106-0.078,0.25-0.144,0.433-0.198c0.184-0.055,0.379-0.082,0.588-0.082
			c0.315,0,0.593,0.046,0.83,0.137c0.238,0.09,0.414,0.213,0.528,0.369c0.113,0.154,0.191,0.361,0.234,0.622l-0.665,0.091
			c-0.031-0.207-0.119-0.369-0.264-0.484c-0.145-0.116-0.35-0.174-0.614-0.174c-0.313,0-0.536,0.051-0.669,0.154
			c-0.135,0.104-0.201,0.225-0.201,0.363c0,0.088,0.027,0.168,0.084,0.238c0.055,0.073,0.142,0.134,0.26,0.182
			c0.068,0.025,0.27,0.083,0.602,0.174c0.482,0.129,0.818,0.234,1.008,0.316c0.19,0.082,0.34,0.201,0.448,0.357
			s0.163,0.35,0.163,0.582c0,0.227-0.066,0.439-0.199,0.641c-0.132,0.201-0.323,0.355-0.572,0.465
			c-0.25,0.109-0.532,0.164-0.848,0.164c-0.521,0-0.919-0.107-1.192-0.324C716.466,393.625,716.292,393.302,716.216,392.876z"/>
		<path fill="#FFFFFF" d="M722.993,394.076v-0.59c-0.313,0.453-0.738,0.68-1.275,0.68c-0.236,0-0.458-0.045-0.663-0.135
			c-0.206-0.092-0.358-0.205-0.458-0.343s-0.169-0.306-0.209-0.505c-0.028-0.134-0.042-0.346-0.042-0.635v-2.488h0.681v2.227
			c0,0.355,0.014,0.596,0.041,0.719c0.043,0.18,0.134,0.319,0.273,0.422c0.138,0.102,0.31,0.152,0.514,0.152
			s0.396-0.052,0.574-0.156c0.18-0.105,0.307-0.248,0.381-0.428s0.111-0.441,0.111-0.785v-2.15h0.681v4.016H722.993z"/>
		<path fill="#FFFFFF" d="M724.661,394.076v-4.016h0.611v0.607c0.156-0.284,0.301-0.473,0.434-0.563
			c0.133-0.091,0.277-0.137,0.437-0.137c0.229,0,0.463,0.074,0.699,0.22l-0.233,0.632c-0.167-0.099-0.333-0.148-0.5-0.148
			c-0.148,0-0.282,0.045-0.4,0.135c-0.119,0.09-0.203,0.214-0.254,0.373c-0.075,0.242-0.113,0.506-0.113,0.794v2.103H724.661z"/>
	</g>
</g>
<g>
	<g>
		<path fill="#132445" d="M92.126,28.346H3.543C1.559,28.346,0,26.716,0,24.803V3.543C0,1.56,1.63,0,3.543,0h88.583
			c1.985,0,3.544,1.63,3.544,3.543v21.26C95.67,26.788,94.111,28.346,92.126,28.346z"/>
	</g>
	<g>
		<g>
			<path fill="#A7A6A6" d="M92.126,0.567c1.631,0,2.978,1.346,2.978,2.976v21.26c0,1.63-1.347,2.977-2.978,2.977H3.543
				c-1.63,0-2.977-1.347-2.977-2.977V3.543c0-1.63,1.347-2.976,2.977-2.976H92.126 M92.126,0H3.543C1.63,0,0,1.63,0,3.543v21.26
				c0,1.984,1.631,3.543,3.544,3.543h88.583c1.985,0,3.544-1.63,3.544-3.543V3.543C95.67,1.63,94.111,0,92.126,0L92.126,0z"/>
		</g>
	</g>
	<g id="_Group_2_1_">
		<g id="_Group_3_1_">
			<path id="_Path__1_" fill="#FFFFFF" d="M20.011,14.777c0-1.358,0.719-2.637,1.918-3.356c-0.72-1.039-1.918-1.678-3.197-1.758
				c-1.358-0.16-2.637,0.799-3.356,0.799s-1.759-0.799-2.878-0.799c-1.518,0.08-2.877,0.879-3.596,2.158
				c-1.52,2.638-0.4,6.633,1.118,8.792c0.72,1.039,1.599,2.237,2.718,2.237c1.119-0.079,1.519-0.719,2.877-0.719
				c1.359,0,1.679,0.719,2.877,0.719c1.199,0,1.919-1.038,2.639-2.157c0.559-0.72,0.959-1.599,1.198-2.478
				C20.89,17.735,20.011,16.295,20.011,14.777z"/>
			<path id="_Path_2_1_" fill="#FFFFFF" d="M17.773,8.304c0.64-0.8,0.959-1.759,0.879-2.798c-0.959,0.08-1.918,0.56-2.557,1.359
				c-0.64,0.719-0.96,1.678-0.88,2.717C16.254,9.583,17.134,9.103,17.773,8.304z"/>
		</g>
	</g>
	<g>
		<path fill="#FFFFFF" d="M35.36,19.471h-3.756l-0.88,2.717h-1.599l3.597-9.91h1.599l3.597,9.91h-1.599L35.36,19.471z
			 M32.002,18.272h3.037l-1.518-4.395h-0.08L32.002,18.272z"/>
		<path fill="#FFFFFF" d="M45.67,18.592c0,2.237-1.199,3.676-3.037,3.676c-0.959,0.08-1.839-0.479-2.238-1.278l0,0v3.597h-1.519
			v-9.591h1.438v1.198l0,0c0.479-0.799,1.359-1.278,2.318-1.278C44.391,14.836,45.67,16.354,45.67,18.592z M44.071,18.592
			c0-1.439-0.719-2.398-1.918-2.398c-1.118,0-1.918,0.959-1.918,2.398c0,1.438,0.8,2.397,1.918,2.397
			C43.352,20.99,44.071,20.03,44.071,18.592z"/>
		<path fill="#FFFFFF" d="M53.583,18.592c0,2.237-1.199,3.676-3.037,3.676c-0.959,0.08-1.838-0.479-2.239-1.278l0,0v3.597h-1.519
			v-9.591h1.438v1.198l0,0c0.48-0.799,1.36-1.278,2.319-1.278C52.384,14.836,53.583,16.354,53.583,18.592z M52.064,18.592
			c0-1.439-0.72-2.398-1.918-2.398c-1.119,0-1.919,0.959-1.919,2.398c0,1.438,0.8,2.397,1.919,2.397
			C51.345,20.99,52.064,20.03,52.064,18.592L52.064,18.592z"/>
		<path fill="#FFFFFF" d="M58.859,19.391c0.079,0.959,1.039,1.599,2.396,1.599c1.279,0,2.158-0.64,2.158-1.519
			c0-0.799-0.559-1.199-1.838-1.519l-1.278-0.319c-1.839-0.48-2.638-1.279-2.638-2.638c0-1.678,1.519-2.877,3.596-2.877
			c2.079,0,3.518,1.199,3.598,2.877h-1.519c-0.08-0.959-0.88-1.598-2.079-1.598c-1.198,0-1.997,0.639-1.997,1.519
			c0,0.718,0.56,1.119,1.838,1.438l1.119,0.24c1.998,0.479,2.877,1.278,2.877,2.717c0,1.838-1.519,3.037-3.837,3.037
			c-2.237,0-3.676-1.119-3.756-2.957H58.859z"/>
		<path fill="#FFFFFF" d="M68.13,13.237v1.679h1.359v1.199H68.13v3.995c0,0.64,0.24,0.88,0.88,0.88c0.159,0,0.319,0,0.479,0v1.198
			c-0.24,0.08-0.56,0.08-0.8,0.08c-1.438,0-1.998-0.56-1.998-1.918v-4.156h-1.039v-1.198h1.039v-1.678h1.438V13.237z"/>
		<path fill="#FFFFFF" d="M70.368,18.592c0-2.238,1.358-3.676,3.437-3.676s3.437,1.438,3.437,3.676c0,2.317-1.358,3.676-3.437,3.676
			C71.646,22.268,70.368,20.83,70.368,18.592z M75.723,18.592c0-1.599-0.719-2.478-1.918-2.478s-1.918,0.879-1.918,2.478
			c0,1.598,0.719,2.477,1.918,2.477S75.723,20.11,75.723,18.592L75.723,18.592z"/>
		<path fill="#FFFFFF" d="M78.44,14.916h1.438v1.278l0,0c0.159-0.799,0.959-1.358,1.758-1.278c0.16,0,0.32,0,0.479,0.08v1.358
			c-0.239-0.08-0.479-0.08-0.639-0.08c-0.8,0-1.52,0.64-1.52,1.438c0,0.08,0,0.16,0,0.24v4.315H78.44V14.916z"/>
		<path fill="#FFFFFF" d="M88.99,20.03c-0.239,1.279-1.519,2.238-3.117,2.238c-2.078,0-3.437-1.438-3.437-3.676
			c0-2.238,1.278-3.756,3.356-3.756c1.998,0,3.276,1.358,3.276,3.596v0.479h-5.115v0.08c-0.079,1.038,0.641,1.918,1.679,2.077
			c0.08,0,0.16,0,0.24,0c0.72,0.08,1.438-0.319,1.679-1.039H88.99z M83.954,17.873h3.598c0.08-0.959-0.72-1.758-1.679-1.838
			c-0.08,0-0.08,0-0.16,0C84.754,16.035,83.954,16.833,83.954,17.873L83.954,17.873z"/>
	</g>
	<g>
		<path fill="#FFFFFF" d="M29.125,9.469V3.926h1.91c0.431,0,0.76,0.026,0.986,0.08c0.318,0.073,0.589,0.205,0.813,0.397
			c0.292,0.247,0.511,0.563,0.656,0.947c0.145,0.384,0.218,0.824,0.218,1.318c0,0.421-0.05,0.794-0.148,1.119
			c-0.098,0.325-0.225,0.595-0.378,0.808s-0.322,0.381-0.505,0.503s-0.403,0.215-0.662,0.278c-0.258,0.063-0.555,0.094-0.891,0.094
			H29.125z M29.859,8.815h1.185c0.365,0,0.651-0.034,0.859-0.102c0.209-0.068,0.374-0.164,0.498-0.288
			c0.174-0.174,0.309-0.408,0.406-0.702c0.097-0.293,0.146-0.649,0.146-1.068c0-0.58-0.095-1.025-0.286-1.336
			c-0.189-0.312-0.421-0.52-0.693-0.626c-0.197-0.076-0.514-0.113-0.949-0.113h-1.165V8.815z"/>
		<path fill="#FFFFFF" d="M34.635,4.708V3.926h0.681v0.783H34.635z M34.635,9.469V5.454h0.681v4.016H34.635z"/>
		<path fill="#FFFFFF" d="M36.081,8.271l0.673-0.106c0.038,0.27,0.143,0.477,0.315,0.621C37.242,8.929,37.483,9,37.793,9
			c0.313,0,0.544-0.063,0.695-0.191s0.227-0.277,0.227-0.448c0-0.154-0.066-0.275-0.2-0.363c-0.093-0.061-0.325-0.138-0.696-0.23
			c-0.498-0.126-0.845-0.235-1.037-0.327c-0.193-0.092-0.34-0.22-0.439-0.382c-0.1-0.163-0.148-0.343-0.148-0.539
			c0-0.179,0.041-0.345,0.122-0.498c0.082-0.152,0.194-0.279,0.335-0.38c0.105-0.078,0.25-0.144,0.434-0.199
			c0.182-0.054,0.378-0.081,0.588-0.081c0.314,0,0.592,0.045,0.83,0.136c0.238,0.09,0.414,0.213,0.527,0.369
			c0.113,0.155,0.191,0.362,0.234,0.623l-0.666,0.09c-0.03-0.207-0.117-0.368-0.263-0.484c-0.146-0.116-0.35-0.174-0.614-0.174
			c-0.313,0-0.536,0.052-0.67,0.155c-0.133,0.103-0.2,0.224-0.2,0.363c0,0.088,0.028,0.167,0.083,0.238
			c0.056,0.073,0.143,0.134,0.262,0.182c0.068,0.025,0.269,0.083,0.601,0.174c0.481,0.128,0.817,0.234,1.008,0.316
			s0.34,0.201,0.448,0.357s0.162,0.35,0.162,0.582c0,0.227-0.065,0.44-0.197,0.641c-0.133,0.201-0.324,0.355-0.573,0.465
			c-0.25,0.109-0.532,0.164-0.848,0.164c-0.521,0-0.919-0.108-1.192-0.325S36.156,8.697,36.081,8.271z"/>
		<path fill="#FFFFFF" d="M40.225,11.008V5.454h0.619v0.521c0.146-0.204,0.312-0.357,0.496-0.459
			c0.184-0.103,0.406-0.153,0.669-0.153c0.343,0,0.646,0.088,0.907,0.265c0.263,0.177,0.461,0.425,0.594,0.747
			c0.134,0.321,0.201,0.674,0.201,1.057c0,0.411-0.074,0.781-0.222,1.11c-0.147,0.329-0.362,0.581-0.643,0.756
			C42.566,9.473,42.27,9.56,41.959,9.56c-0.227,0-0.43-0.048-0.61-0.144S41.021,9.2,40.905,9.053v1.955H40.225z M40.84,7.484
			c0,0.517,0.105,0.899,0.314,1.146S41.618,9,41.915,9c0.303,0,0.562-0.128,0.777-0.383c0.215-0.256,0.323-0.653,0.323-1.19
			c0-0.512-0.105-0.895-0.315-1.149c-0.211-0.255-0.463-0.382-0.755-0.382c-0.29,0-0.546,0.136-0.77,0.406
			C40.953,6.574,40.84,6.967,40.84,7.484z"/>
		<path fill="#FFFFFF" d="M44.278,7.461c0-0.744,0.207-1.294,0.621-1.652c0.345-0.298,0.766-0.446,1.263-0.446
			c0.552,0,1.003,0.181,1.354,0.542s0.525,0.862,0.525,1.5c0,0.517-0.077,0.923-0.232,1.22c-0.155,0.296-0.38,0.526-0.677,0.69
			c-0.296,0.164-0.619,0.246-0.97,0.246c-0.563,0-1.017-0.18-1.363-0.541S44.278,8.14,44.278,7.461z M44.978,7.461
			c0,0.514,0.112,0.899,0.337,1.156C45.539,8.873,45.821,9,46.162,9c0.338,0,0.618-0.128,0.843-0.385
			c0.225-0.257,0.337-0.649,0.337-1.176c0-0.497-0.112-0.873-0.339-1.129c-0.226-0.256-0.506-0.384-0.841-0.384
			c-0.341,0-0.623,0.127-0.847,0.382C45.09,6.563,44.978,6.947,44.978,7.461z"/>
		<path fill="#FFFFFF" d="M48.838,9.469V5.454h0.614v0.571c0.295-0.441,0.721-0.662,1.277-0.662c0.242,0,0.465,0.043,0.668,0.13
			s0.355,0.201,0.455,0.342c0.102,0.141,0.172,0.309,0.213,0.503C52.09,6.464,52.103,6.685,52.103,7v2.469h-0.681V7.027
			c0-0.277-0.026-0.485-0.079-0.622c-0.053-0.138-0.146-0.247-0.281-0.329c-0.136-0.083-0.293-0.124-0.475-0.124
			c-0.291,0-0.541,0.092-0.751,0.276c-0.211,0.184-0.315,0.533-0.315,1.047v2.193H48.838z"/>
		<path fill="#FFFFFF" d="M53.15,4.708V3.926h0.681v0.783H53.15z M53.15,9.469V5.454h0.681v4.016H53.15z"/>
		<path fill="#FFFFFF" d="M55.496,9.469h-0.632V3.926h0.681v1.978c0.287-0.361,0.654-0.541,1.101-0.541
			c0.247,0,0.48,0.05,0.701,0.149s0.402,0.239,0.545,0.42c0.142,0.18,0.254,0.397,0.335,0.652c0.08,0.254,0.121,0.526,0.121,0.816
			c0,0.688-0.171,1.22-0.512,1.596c-0.34,0.376-0.748,0.563-1.225,0.563c-0.475,0-0.846-0.198-1.115-0.594V9.469z M55.488,7.431
			c0,0.481,0.065,0.83,0.196,1.044C55.898,8.826,56.189,9,56.555,9c0.297,0,0.555-0.129,0.771-0.388
			c0.217-0.258,0.325-0.644,0.325-1.155c0-0.524-0.104-0.911-0.312-1.161c-0.209-0.25-0.46-0.375-0.755-0.375
			c-0.298,0-0.555,0.129-0.771,0.388C55.597,6.568,55.488,6.942,55.488,7.431z"/>
		<path fill="#FFFFFF" d="M59.16,9.469V3.926h0.681v5.543H59.16z"/>
		<path fill="#FFFFFF" d="M63.645,8.176l0.704,0.087c-0.111,0.411-0.316,0.729-0.616,0.957c-0.301,0.227-0.684,0.34-1.15,0.34
			c-0.587,0-1.053-0.181-1.396-0.542c-0.345-0.362-0.517-0.869-0.517-1.522c0-0.676,0.174-1.2,0.522-1.573
			c0.348-0.373,0.799-0.56,1.354-0.56c0.537,0,0.976,0.183,1.315,0.548c0.341,0.366,0.511,0.88,0.511,1.542
			c0,0.041-0.002,0.101-0.004,0.182h-2.995c0.025,0.441,0.15,0.779,0.374,1.014C61.971,8.883,62.251,9,62.586,9
			c0.25,0,0.463-0.065,0.639-0.196C63.402,8.673,63.541,8.463,63.645,8.176z M61.41,7.076h2.242c-0.03-0.338-0.115-0.591-0.257-0.76
			c-0.217-0.263-0.498-0.394-0.844-0.394c-0.313,0-0.575,0.104-0.788,0.314S61.433,6.725,61.41,7.076z"/>
		<path fill="#FFFFFF" d="M67.082,8.271l0.674-0.106c0.037,0.27,0.143,0.477,0.315,0.621C68.244,8.929,68.485,9,68.795,9
			c0.313,0,0.545-0.063,0.696-0.191s0.228-0.277,0.228-0.448c0-0.154-0.067-0.275-0.201-0.363c-0.094-0.061-0.325-0.138-0.695-0.23
			c-0.5-0.126-0.846-0.235-1.039-0.327c-0.192-0.092-0.338-0.22-0.438-0.382c-0.1-0.163-0.15-0.343-0.15-0.539
			c0-0.179,0.041-0.345,0.123-0.498c0.082-0.152,0.193-0.279,0.335-0.38c0.106-0.078,0.25-0.144,0.433-0.199
			c0.184-0.054,0.379-0.081,0.588-0.081c0.315,0,0.593,0.045,0.83,0.136c0.238,0.09,0.414,0.213,0.528,0.369
			c0.113,0.155,0.191,0.362,0.234,0.623l-0.665,0.09c-0.031-0.207-0.119-0.368-0.264-0.484c-0.145-0.116-0.35-0.174-0.614-0.174
			c-0.313,0-0.536,0.052-0.669,0.155c-0.135,0.103-0.201,0.224-0.201,0.363c0,0.088,0.027,0.167,0.084,0.238
			c0.055,0.073,0.142,0.134,0.26,0.182c0.068,0.025,0.27,0.083,0.602,0.174c0.482,0.128,0.818,0.234,1.008,0.316
			c0.19,0.082,0.34,0.201,0.448,0.357s0.163,0.35,0.163,0.582c0,0.227-0.066,0.44-0.199,0.641c-0.132,0.201-0.323,0.355-0.572,0.465
			c-0.25,0.109-0.532,0.164-0.848,0.164c-0.521,0-0.919-0.108-1.192-0.325C67.332,9.018,67.158,8.697,67.082,8.271z"/>
		<path fill="#FFFFFF" d="M73.859,9.469v-0.59c-0.313,0.454-0.738,0.681-1.275,0.681c-0.236,0-0.458-0.045-0.663-0.136
			c-0.206-0.091-0.358-0.205-0.458-0.342c-0.1-0.138-0.169-0.306-0.209-0.505c-0.028-0.134-0.042-0.345-0.042-0.635V5.454h0.681
			v2.228c0,0.355,0.014,0.595,0.041,0.718c0.043,0.179,0.134,0.319,0.273,0.421c0.138,0.103,0.31,0.153,0.514,0.153
			s0.396-0.052,0.574-0.157c0.18-0.104,0.307-0.247,0.381-0.427c0.074-0.181,0.111-0.442,0.111-0.785V5.454h0.681v4.016H73.859z"/>
		<path fill="#FFFFFF" d="M75.527,9.469V5.454h0.611v0.608c0.156-0.285,0.301-0.473,0.434-0.563
			c0.133-0.091,0.277-0.136,0.437-0.136c0.229,0,0.463,0.073,0.699,0.219l-0.233,0.631c-0.167-0.098-0.333-0.147-0.5-0.147
			c-0.148,0-0.282,0.045-0.4,0.134c-0.119,0.089-0.203,0.214-0.254,0.373c-0.075,0.242-0.113,0.506-0.113,0.794v2.102H75.527z"/>
	</g>
</g>
</svg>
