<?xml version="1.0" encoding="utf-8"?>
<!-- Generator: Adobe Illustrator 16.0.0, SVG Export Plug-In . SVG Version: 6.00 Build 0)  -->
<!DOCTYPE svg PUBLIC "-//W3C//DTD SVG 1.1//EN" "http://www.w3.org/Graphics/SVG/1.1/DTD/svg11.dtd">
<svg version="1.1" id="Layer_1" xmlns="http://www.w3.org/2000/svg" xmlns:xlink="http://www.w3.org/1999/xlink" x="0px" y="0px"
	 width="95.669px" height="28.346px" viewBox="0 0 95.669 28.346" enable-background="new 0 0 95.669 28.346" xml:space="preserve">
<g>
	<g>
		<path fill="#132445" d="M92.123,28.346H3.542c-1.984,0-3.544-1.631-3.544-3.544V3.542C-0.002,1.559,1.627,0,3.542,0h88.582
			c1.984,0,3.544,1.63,3.544,3.543v21.26C95.667,26.787,94.107,28.346,92.123,28.346z"/>
	</g>
	<g>
		<g>
			<path fill="#A7A6A6" d="M92.123,0.566c1.63,0,2.977,1.346,2.977,2.976v21.26c0,1.63-1.347,2.977-2.977,2.977H3.542
				c-1.631,0-2.977-1.347-2.977-2.977V3.542c0-1.63,1.346-2.976,2.977-2.976H92.123 M92.123,0H3.542
				c-1.914,0-3.544,1.63-3.544,3.543v21.26c0,1.984,1.63,3.544,3.544,3.544h88.582c1.984,0,3.544-1.631,3.544-3.544V3.542
				C95.667,1.629,94.107,0,92.123,0L92.123,0z"/>
		</g>
	</g>
	<path fill="#FFFFFF" d="M48.257,15.448c-1.631,0-3.047,1.275-3.047,3.047c0,1.772,1.346,3.048,3.047,3.048
		c1.701,0,3.047-1.275,3.047-3.048C51.305,16.653,49.958,15.448,48.257,15.448z M48.257,20.267c-0.922,0-1.701-0.78-1.701-1.843
		s0.779-1.842,1.701-1.842s1.701,0.708,1.701,1.842C49.958,19.487,49.179,20.267,48.257,20.267z M41.667,15.448
		c-1.63,0-3.048,1.275-3.048,3.047c0,1.772,1.347,3.048,3.048,3.048c1.63,0,3.048-1.275,3.048-3.048
		C44.714,16.653,43.368,15.448,41.667,15.448z M41.667,20.267c-0.921,0-1.701-0.78-1.701-1.843s0.78-1.842,1.701-1.842
		s1.701,0.708,1.701,1.842C43.368,19.487,42.587,20.267,41.667,20.267z M33.8,16.37v1.275h3.047c-0.07,0.709-0.354,1.275-0.708,1.63
		c-0.425,0.425-1.134,0.921-2.339,0.921c-1.913,0-3.33-1.488-3.33-3.401c0-1.914,1.487-3.401,3.33-3.401
		c0.992,0,1.771,0.425,2.339,0.921l0.921-0.921c-0.779-0.708-1.771-1.276-3.188-1.276c-2.552,0-4.748,2.126-4.748,4.677
		c0,2.552,2.196,4.677,4.748,4.677c1.417,0,2.48-0.425,3.259-1.346c0.851-0.851,1.135-2.055,1.135-2.977c0-0.283,0-0.566-0.07-0.779
		H33.8L33.8,16.37z M65.974,17.362c-0.212-0.709-0.992-1.914-2.551-1.914c-1.56,0-2.835,1.205-2.835,3.047
		c0,1.701,1.275,3.048,2.977,3.048c1.346,0,2.197-0.851,2.48-1.347l-0.992-0.709c-0.354,0.496-0.779,0.852-1.488,0.852
		s-1.134-0.283-1.488-0.922l4.039-1.701L65.974,17.362z M61.863,18.354c-0.07-1.135,0.922-1.771,1.56-1.771
		c0.496,0,0.992,0.283,1.134,0.637L61.863,18.354z M58.533,21.259h1.347v-8.858h-1.347V21.259z M56.407,16.086L56.407,16.086
		c-0.354-0.355-0.921-0.709-1.63-0.709c-1.488,0-2.905,1.346-2.905,3.047s1.347,2.977,2.905,2.977c0.709,0,1.275-0.354,1.559-0.709
		h0.071v0.426c0,1.133-0.638,1.771-1.63,1.771c-0.779,0-1.275-0.566-1.488-1.063l-1.134,0.496c0.354,0.779,1.205,1.771,2.693,1.771
		c1.559,0,2.834-0.922,2.834-3.119V15.59h-1.275V16.086L56.407,16.086z M54.849,20.267c-0.922,0-1.702-0.78-1.702-1.843
		s0.78-1.842,1.702-1.842c0.921,0,1.629,0.779,1.629,1.842S55.77,20.267,54.849,20.267z M72.14,12.401H68.95v8.858h1.346v-3.331
		h1.844c1.487,0,2.904-1.063,2.904-2.764C75.044,13.464,73.627,12.401,72.14,12.401z M72.14,16.653h-1.914v-3.047h1.914
		c0.991,0,1.559,0.851,1.559,1.488C73.698,15.874,73.202,16.653,72.14,16.653z M80.359,15.377c-0.921,0-1.984,0.426-2.339,1.346
		l1.205,0.496c0.213-0.496,0.709-0.637,1.205-0.637c0.708,0,1.346,0.425,1.417,1.133v0.071c-0.213-0.142-0.779-0.354-1.347-0.354
		c-1.275,0-2.551,0.709-2.551,1.984c0,1.205,1.063,1.984,2.196,1.984c0.922,0,1.347-0.426,1.701-0.85h0.071v0.708h1.275v-3.401
		C83.052,16.299,81.848,15.377,80.359,15.377z M80.218,20.267c-0.426,0-1.063-0.212-1.063-0.78c0-0.708,0.78-0.92,1.418-0.92
		c0.566,0,0.851,0.141,1.204,0.283C81.635,19.7,80.927,20.267,80.218,20.267z M87.659,15.59l-1.488,3.826H86.1l-1.56-3.826h-1.417
		l2.339,5.385l-1.347,2.977h1.347l3.614-8.361H87.659z M75.753,21.259H77.1v-8.858h-1.347V21.259z"/>
	<g>
		
			<linearGradient id="SVGID_1_" gradientUnits="userSpaceOnUse" x1="-188.9175" y1="1026.1968" x2="-191.6148" y2="1028.894" gradientTransform="matrix(4.4095 0 0 4.4095 848.4741 -4518.8491)">
			<stop  offset="0" style="stop-color:#4998D3"/>
			<stop  offset="0.0066" style="stop-color:#4A99D3"/>
			<stop  offset="0.2601" style="stop-color:#42BAEB"/>
			<stop  offset="0.5122" style="stop-color:#41C7F2"/>
			<stop  offset="0.7604" style="stop-color:#56C9E9"/>
			<stop  offset="1" style="stop-color:#5BCAE8"/>
		</linearGradient>
		<path fill="url(#SVGID_1_)" d="M7.368,5.314C7.155,5.527,7.084,5.881,7.084,6.307v15.661c0,0.426,0.142,0.779,0.354,0.992
			l0.07,0.072l8.788-8.789v-0.07v-0.071L7.368,5.314L7.368,5.314z"/>
		
			<linearGradient id="SVGID_2_" gradientUnits="userSpaceOnUse" x1="-186.9839" y1="1028.022" x2="-190.8716" y2="1028.022" gradientTransform="matrix(4.4095 0 0 4.4095 848.4741 -4518.8491)">
			<stop  offset="0" style="stop-color:#FEE000"/>
			<stop  offset="0.4087" style="stop-color:#FEBD11"/>
			<stop  offset="0.7754" style="stop-color:#FAA51A"/>
			<stop  offset="1" style="stop-color:#F99B1C"/>
		</linearGradient>
		<path fill="url(#SVGID_2_)" d="M19.131,17.219l-2.905-2.905v-0.142v-0.071l2.905-2.905l0.071,0.071l3.472,1.984
			c0.992,0.567,0.992,1.488,0,2.056L19.131,17.219L19.131,17.219z"/>
		
			<linearGradient id="SVGID_3_" gradientUnits="userSpaceOnUse" x1="-188.4321" y1="1028.3794" x2="-192.0899" y2="1032.0371" gradientTransform="matrix(4.4095 0 0 4.4095 848.4741 -4518.8491)">
			<stop  offset="0" style="stop-color:#EF4149"/>
			<stop  offset="1" style="stop-color:#C31E63"/>
		</linearGradient>
		<path fill="url(#SVGID_3_)" d="M19.203,17.149l-2.977-2.976l-8.858,8.859c0.354,0.354,0.851,0.354,1.488,0.07L19.203,17.149"/>
		
			<linearGradient id="SVGID_4_" gradientUnits="userSpaceOnUse" x1="-191.2495" y1="1024.8286" x2="-189.6164" y2="1026.4618" gradientTransform="matrix(4.4095 0 0 4.4095 848.4741 -4518.8491)">
			<stop  offset="0" style="stop-color:#32A072"/>
			<stop  offset="0.0685" style="stop-color:#2CA772"/>
			<stop  offset="0.4762" style="stop-color:#4BBA71"/>
			<stop  offset="0.8009" style="stop-color:#5EBD6B"/>
			<stop  offset="1" style="stop-color:#66BE69"/>
		</linearGradient>
		<path fill="url(#SVGID_4_)" d="M19.203,11.196L8.856,5.314c-0.566-0.354-1.134-0.354-1.488,0l8.858,8.858L19.203,11.196z"/>
		<g>
			<path opacity="0.2" fill="#010101" enable-background="new    " d="M19.131,17.079L8.856,22.889
				c-0.566,0.354-1.063,0.283-1.417,0l0,0l-0.071,0.07l0,0l0.071,0.072l0,0c0.354,0.283,0.851,0.354,1.417,0L19.131,17.079
				L19.131,17.079z"/>
			<path opacity="0.12" fill="#010101" enable-background="new    " d="M7.368,22.889c-0.213-0.213-0.283-0.566-0.283-0.992v0.07
				c0,0.426,0.142,0.779,0.354,0.992v-0.07H7.368L7.368,22.889z"/>
		</g>
		<path opacity="0.12" fill="#010101" enable-background="new    " d="M22.674,15.094l-3.543,1.985l0.071,0.07l3.472-1.984
			c0.496-0.284,0.709-0.638,0.709-0.992l0,0C23.383,14.527,23.17,14.811,22.674,15.094z"/>
		<path opacity="0.25" fill="#FFFFFF" enable-background="new    " d="M8.856,5.385l13.818,7.866
			c0.426,0.284,0.709,0.567,0.709,0.922l0,0c0-0.354-0.213-0.709-0.709-0.992L8.856,5.385C7.864,4.748,7.084,5.173,7.084,6.307
			v0.071C7.084,5.314,7.864,4.818,8.856,5.385z"/>
	</g>
	<g>
		<path fill="#FFFFFF" d="M29.124,9.468V3.925h1.909c0.432,0,0.761,0.026,0.987,0.08c0.317,0.073,0.589,0.205,0.813,0.397
			c0.293,0.247,0.512,0.563,0.656,0.947c0.146,0.384,0.218,0.824,0.218,1.318c0,0.421-0.049,0.794-0.147,1.119
			s-0.225,0.595-0.378,0.808c-0.154,0.213-0.322,0.381-0.505,0.503s-0.403,0.215-0.662,0.278s-0.556,0.094-0.89,0.094H29.124z
			 M29.857,8.814h1.184c0.365,0,0.652-0.034,0.86-0.102c0.208-0.068,0.374-0.164,0.497-0.288c0.174-0.174,0.31-0.408,0.406-0.702
			c0.098-0.293,0.146-0.649,0.146-1.068c0-0.58-0.096-1.025-0.286-1.336c-0.19-0.312-0.422-0.52-0.694-0.626
			c-0.196-0.076-0.512-0.113-0.948-0.113h-1.165V8.814z"/>
		<path fill="#FFFFFF" d="M34.633,4.708V3.925h0.681v0.783H34.633z M34.633,9.468V5.453h0.681v4.016H34.633z"/>
		<path fill="#FFFFFF" d="M36.078,8.27l0.673-0.106c0.038,0.27,0.144,0.477,0.316,0.621C37.239,8.928,37.481,9,37.791,9
			c0.313,0,0.545-0.063,0.695-0.191c0.151-0.127,0.228-0.277,0.228-0.448c0-0.154-0.067-0.275-0.2-0.363
			c-0.094-0.061-0.325-0.138-0.696-0.23c-0.499-0.126-0.845-0.235-1.038-0.327c-0.192-0.092-0.339-0.22-0.438-0.382
			c-0.1-0.163-0.149-0.343-0.149-0.539c0-0.179,0.041-0.345,0.123-0.498c0.082-0.152,0.193-0.279,0.335-0.38
			c0.105-0.078,0.25-0.144,0.433-0.199c0.183-0.054,0.379-0.081,0.588-0.081c0.315,0,0.592,0.045,0.83,0.136
			c0.238,0.09,0.414,0.213,0.527,0.369c0.113,0.155,0.191,0.362,0.234,0.623l-0.665,0.09c-0.03-0.207-0.118-0.368-0.263-0.484
			c-0.146-0.116-0.35-0.174-0.615-0.174c-0.313,0-0.535,0.052-0.669,0.155c-0.134,0.103-0.2,0.224-0.2,0.363
			c0,0.088,0.027,0.167,0.083,0.238c0.056,0.073,0.143,0.134,0.261,0.182c0.068,0.025,0.269,0.083,0.602,0.174
			c0.481,0.128,0.817,0.234,1.008,0.316s0.34,0.201,0.448,0.357s0.163,0.35,0.163,0.582c0,0.227-0.066,0.44-0.199,0.641
			c-0.133,0.2-0.323,0.355-0.573,0.465c-0.249,0.109-0.531,0.164-0.847,0.164c-0.521,0-0.92-0.108-1.193-0.325
			S36.153,8.696,36.078,8.27z"/>
		<path fill="#FFFFFF" d="M40.222,11.007V5.453h0.619v0.521c0.147-0.204,0.313-0.357,0.496-0.459
			c0.184-0.103,0.407-0.153,0.67-0.153c0.342,0,0.645,0.088,0.907,0.265c0.262,0.177,0.46,0.425,0.594,0.747
			c0.134,0.321,0.2,0.674,0.2,1.057c0,0.411-0.074,0.781-0.221,1.11c-0.147,0.329-0.362,0.581-0.644,0.756s-0.577,0.263-0.887,0.263
			c-0.227,0-0.431-0.048-0.61-0.144s-0.328-0.217-0.444-0.363v1.955H40.222z M40.838,7.483c0,0.517,0.104,0.899,0.313,1.146
			S41.615,9,41.912,9c0.304,0,0.563-0.128,0.777-0.383c0.217-0.256,0.323-0.653,0.323-1.19c0-0.512-0.104-0.895-0.315-1.149
			s-0.462-0.382-0.754-0.382c-0.29,0-0.547,0.136-0.77,0.406C40.95,6.573,40.838,6.966,40.838,7.483z"/>
		<path fill="#FFFFFF" d="M44.276,7.46c0-0.744,0.206-1.294,0.62-1.652c0.346-0.298,0.766-0.446,1.264-0.446
			c0.552,0,1.002,0.181,1.354,0.542c0.35,0.362,0.525,0.862,0.525,1.5c0,0.517-0.077,0.923-0.232,1.22
			c-0.155,0.296-0.381,0.526-0.677,0.69c-0.297,0.164-0.62,0.246-0.97,0.246c-0.563,0-1.018-0.18-1.363-0.541
			C44.45,8.658,44.276,8.139,44.276,7.46z M44.976,7.46c0,0.514,0.111,0.899,0.336,1.156C45.537,8.872,45.819,9,46.16,9
			c0.337,0,0.618-0.128,0.843-0.385c0.225-0.257,0.337-0.649,0.337-1.176c0-0.497-0.113-0.873-0.339-1.129s-0.507-0.384-0.841-0.384
			c-0.341,0-0.623,0.127-0.848,0.382S44.976,6.946,44.976,7.46z"/>
		<path fill="#FFFFFF" d="M48.836,9.468V5.453h0.613v0.571c0.295-0.441,0.721-0.662,1.278-0.662c0.242,0,0.465,0.043,0.668,0.13
			c0.202,0.087,0.354,0.201,0.456,0.342c0.1,0.141,0.17,0.309,0.211,0.503C52.088,6.463,52.1,6.684,52.1,6.999v2.469h-0.68V7.026
			c0-0.277-0.027-0.485-0.08-0.622c-0.053-0.138-0.146-0.247-0.281-0.329c-0.135-0.083-0.293-0.124-0.475-0.124
			c-0.29,0-0.54,0.092-0.751,0.276c-0.21,0.184-0.315,0.533-0.315,1.047v2.193H48.836z"/>
		<path fill="#FFFFFF" d="M53.148,4.708V3.925h0.68v0.783H53.148z M53.148,9.468V5.453h0.68v4.016H53.148z"/>
		<path fill="#FFFFFF" d="M55.492,9.468h-0.631V3.925h0.68v1.978c0.288-0.361,0.654-0.541,1.101-0.541
			c0.247,0,0.481,0.05,0.702,0.149c0.22,0.1,0.402,0.239,0.544,0.42c0.143,0.18,0.254,0.397,0.335,0.652
			c0.08,0.254,0.121,0.526,0.121,0.816c0,0.688-0.17,1.22-0.511,1.596c-0.34,0.376-0.749,0.563-1.226,0.563
			c-0.474,0-0.846-0.198-1.115-0.594V9.468z M55.484,7.43c0,0.481,0.066,0.83,0.197,1.044C55.896,8.825,56.186,9,56.551,9
			c0.298,0,0.555-0.129,0.771-0.388c0.217-0.258,0.326-0.644,0.326-1.155c0-0.524-0.104-0.911-0.313-1.161s-0.46-0.375-0.754-0.375
			c-0.299,0-0.555,0.129-0.772,0.388C55.594,6.567,55.484,6.941,55.484,7.43z"/>
		<path fill="#FFFFFF" d="M59.156,9.468V3.925h0.681v5.543H59.156z"/>
		<path fill="#FFFFFF" d="M63.642,8.175l0.703,0.087c-0.11,0.411-0.316,0.729-0.616,0.957c-0.3,0.227-0.684,0.34-1.149,0.34
			c-0.588,0-1.054-0.181-1.397-0.542s-0.517-0.869-0.517-1.522c0-0.676,0.175-1.2,0.522-1.573s0.799-0.56,1.354-0.56
			c0.537,0,0.976,0.183,1.316,0.548c0.34,0.366,0.51,0.88,0.51,1.542c0,0.041-0.001,0.101-0.004,0.182h-2.994
			c0.025,0.441,0.149,0.779,0.374,1.014C61.967,8.882,62.247,9,62.582,9c0.25,0,0.463-0.065,0.64-0.196
			C63.398,8.672,63.538,8.462,63.642,8.175z M61.406,7.075h2.242c-0.029-0.338-0.115-0.591-0.257-0.76
			c-0.217-0.263-0.497-0.394-0.843-0.394c-0.313,0-0.576,0.104-0.789,0.314S61.43,6.724,61.406,7.075z"/>
		<path fill="#FFFFFF" d="M67.079,8.27l0.673-0.106c0.038,0.27,0.143,0.477,0.316,0.621C68.24,8.928,68.481,9,68.792,9
			c0.313,0,0.544-0.063,0.695-0.191s0.227-0.277,0.227-0.448c0-0.154-0.066-0.275-0.2-0.363c-0.093-0.061-0.325-0.138-0.695-0.23
			c-0.499-0.126-0.846-0.235-1.038-0.327c-0.192-0.092-0.339-0.22-0.438-0.382c-0.1-0.163-0.149-0.343-0.149-0.539
			c0-0.179,0.041-0.345,0.123-0.498c0.081-0.152,0.193-0.279,0.335-0.38c0.105-0.078,0.25-0.144,0.433-0.199
			c0.183-0.054,0.378-0.081,0.588-0.081c0.315,0,0.592,0.045,0.83,0.136c0.238,0.09,0.414,0.213,0.527,0.369
			c0.113,0.155,0.191,0.362,0.234,0.623l-0.666,0.09c-0.03-0.207-0.117-0.368-0.263-0.484c-0.146-0.116-0.35-0.174-0.614-0.174
			c-0.313,0-0.536,0.052-0.669,0.155C67.917,6.18,67.85,6.301,67.85,6.439c0,0.088,0.028,0.167,0.084,0.238
			c0.055,0.073,0.143,0.134,0.261,0.182c0.068,0.025,0.269,0.083,0.602,0.174c0.48,0.128,0.816,0.234,1.008,0.316
			c0.189,0.082,0.339,0.201,0.447,0.357s0.163,0.35,0.163,0.582c0,0.227-0.066,0.44-0.198,0.641c-0.133,0.2-0.324,0.355-0.573,0.465
			c-0.25,0.109-0.532,0.164-0.847,0.164c-0.522,0-0.92-0.108-1.193-0.325S67.154,8.696,67.079,8.27z"/>
		<path fill="#FFFFFF" d="M73.854,9.468v-0.59c-0.313,0.454-0.736,0.681-1.273,0.681c-0.237,0-0.459-0.045-0.664-0.136
			S71.56,9.218,71.46,9.081c-0.1-0.138-0.17-0.306-0.211-0.505c-0.027-0.134-0.041-0.345-0.041-0.635V5.453h0.681V7.68
			c0,0.355,0.014,0.595,0.042,0.718c0.043,0.179,0.133,0.319,0.271,0.421c0.139,0.103,0.311,0.153,0.515,0.153
			s0.396-0.052,0.575-0.157c0.179-0.104,0.305-0.247,0.38-0.427c0.074-0.181,0.111-0.442,0.111-0.785V5.453h0.681v4.016H73.854z"/>
		<path fill="#FFFFFF" d="M75.522,9.468V5.453h0.613v0.608c0.156-0.285,0.301-0.473,0.433-0.563
			c0.132-0.091,0.278-0.136,0.437-0.136c0.229,0,0.463,0.073,0.699,0.219L77.47,6.212c-0.166-0.098-0.332-0.147-0.498-0.147
			c-0.149,0-0.283,0.045-0.401,0.135c-0.118,0.088-0.203,0.213-0.253,0.372c-0.076,0.242-0.113,0.506-0.113,0.794v2.102H75.522z"/>
	</g>
</g>
</svg>
