<?xml version="1.0" encoding="utf-8"?>
<!-- Generator: Adobe Illustrator 16.0.0, SVG Export Plug-In . SVG Version: 6.00 Build 0)  -->
<!DOCTYPE svg PUBLIC "-//W3C//DTD SVG 1.1//EN" "http://www.w3.org/Graphics/SVG/1.1/DTD/svg11.dtd">
<svg version="1.1" id="Layer_1" xmlns="http://www.w3.org/2000/svg" xmlns:xlink="http://www.w3.org/1999/xlink" x="0px" y="0px"
	 width="447.874px" height="121.89px" viewBox="0 0 447.874 121.89" enable-background="new 0 0 447.874 121.89"
	 xml:space="preserve">
<g id="_x30_2b">
	<g>
		<path fill="#FFFFFF" d="M68.797,10.708H18.065c-2.036,8.759-8.727,15.726-17.326,18.159v40.465
			c0,23.068,20.575,40.824,42.692,46.898c22.118-6.074,42.69-23.83,42.69-46.898V28.867C77.521,26.436,70.835,19.469,68.797,10.708"
			/>
		<g>
			<g>
				<path fill="#A5B8BE" d="M70.95,12.86H20.217c-2.036,8.759-8.727,15.726-17.326,18.159v40.465
					c0,23.068,20.575,40.824,42.692,46.898c22.118-6.074,42.69-23.83,42.69-46.898V31.02C79.674,28.588,72.987,21.621,70.95,12.86z"
					/>
				<path fill="none" stroke="#A5B8BE" stroke-width="1.2199" stroke-miterlimit="10" d="M70.95,12.86H20.217
					c-2.036,8.759-8.727,15.726-17.326,18.159v40.465c0,23.068,20.575,40.824,42.692,46.898c22.118-6.074,42.69-23.83,42.69-46.898
					V31.02C79.674,28.588,72.987,21.621,70.95,12.86z"/>
			</g>
			<g>
				<path fill="#FFFFFF" d="M68.797,10.708H18.065c-2.036,8.759-8.727,15.726-17.326,18.159v40.465
					c0,23.068,20.575,40.824,42.692,46.898c22.118-6.074,42.69-23.83,42.69-46.898V28.867
					C77.521,26.436,70.835,19.469,68.797,10.708z"/>
				<path fill="none" stroke="#152446" stroke-width="1.2199" stroke-miterlimit="10" d="M68.797,10.708H18.065
					c-2.036,8.759-8.727,15.726-17.326,18.159v40.465c0,23.068,20.575,40.824,42.692,46.898c22.118-6.074,42.69-23.83,42.69-46.898
					V28.867C77.521,26.436,70.835,19.469,68.797,10.708z"/>
			</g>
		</g>
		<path fill="#152446" d="M43.432,112.735c-19.11-5.568-39.319-21.346-39.319-43.4v-38.04c7.78-3.002,13.832-9.32,16.497-17.219
			h45.645c2.664,7.9,8.715,14.219,16.497,17.221v38.038C82.751,91.389,62.543,107.167,43.432,112.735"/>
		<path fill="#FFFFFF" d="M78.425,0.796C78.181,0.297,77.677,0,77.144,0c-0.148,0-0.302,0.023-0.452,0.073l-26.039,8.7
			c-0.049,0.016-0.1,0.039-0.149,0.062c-0.502-1.034-1.844-1.589-3.056-2.088c-0.256-0.103-0.537-0.15-0.895-0.15
			C30.395,7.135,22.713,19.479,17.019,31.258c-0.329,0.685-0.065,1.506,0.601,1.87c0.216,0.12,0.452,0.177,0.684,0.177
			c0.479,0,0.944-0.24,1.214-0.676c3.139-5.053,6.054-8.6,8.747-11.084c-0.089,0.154-0.172,0.313-0.233,0.484
			c-1.627,4.604-3.309,9.365-2.403,14.193c0.52,2.762,1.866,5.244,3.998,7.377c2.205,2.207,5.239,4.068,9.274,5.686
			c3.378,1.354,3.824,2.866,4.514,6.156c0.06,0.27,0.104,0.501,0.14,0.695c-0.953-0.146-1.928-0.227-2.904-0.238v-0.004
			c-0.04,0-0.08,0-0.119,0c-0.029,0-0.053,0-0.081,0c-0.086,0-0.173,0.004-0.26,0.007c-0.072,0.003-0.149,0.005-0.226,0.007
			c-0.848,0.02-1.695,0.088-2.539,0.211c-11.275,1.57-19.956,11.252-19.956,22.958c0,12.803,10.379,23.182,23.18,23.182l0,0
			c0.005,0,0.008,0,0.009,0c9.697,0,14.519-2.686,19.72-8.781c0.287,0.594,0.615,1.195,0.964,1.83
			c0.255,0.471,0.744,0.742,1.252,0.742c0.148,0,0.293-0.021,0.436-0.064c0.653-0.209,1.066-0.848,0.983-1.533
			c-0.287-2.402,0.097-6.654,1.232-9.588c0.074-0.189,0.148-0.381,0.223-0.566c0.143,0.137,0.295,0.264,0.453,0.391
			c0.265,0.221,0.583,0.326,0.905,0.326c0.313,0,0.624-0.102,0.883-0.305c0.526-0.412,0.695-1.135,0.406-1.742
			c-0.666-1.385-0.618-4.973-0.237-7.641c0,0,0.004-0.027,0.008-0.037c0.229,0.127,0.468,0.246,0.725,0.35
			c0.172,0.068,0.356,0.104,0.537,0.104c0.426,0,0.841-0.188,1.119-0.537c0.396-0.496,0.415-1.191,0.05-1.715
			c-1.489-2.117-1.617-5.117-1.777-8.92l-0.023-0.545c-0.029-0.73-0.069-1.432-0.114-2.092c0.106,0.047,0.218,0.092,0.333,0.139
			c0.181,0.076,0.367,0.113,0.553,0.113c0.458,0,0.902-0.223,1.176-0.619c0.382-0.56,0.324-1.308-0.146-1.798
			c-1.865-1.951-2.443-2.613-3.335-4.863l-0.012-0.023c-0.659-1.675-1.455-3.232-2.004-4.244c-1.719-3.17-3.613-5.836-5.068-7.136
			c-2.824-2.522-6.321-3.761-15.591-6.657c-3.189-0.993-3.526-2.35-3.637-2.795c-0.273-1.086,0.109-2.371,0.386-3.309
			c0.161-0.54,0.162-0.551,0.916-1.182c0.121-0.103,0.539-0.408,0.982-0.73c2.583-1.879,8.521-6.203,10.639-9.771l24.35-16.447
			C78.537,2.212,78.742,1.438,78.425,0.796"/>
		<path fill="#152446" d="M49.283,9.745c0,0.97-1.587-0.56-2.799-0.56c-1.215,0-5.878-0.115-12.58,3.135
			c4.487-2.684,12.103-4.617,12.999-4.252C48.683,8.798,49.283,9.199,49.283,9.745"/>
		<path fill="#7A878E" d="M42.083,13.771c0.086,0.764,0.422,1.365,0.851,1.846c-0.101,0.241-0.157,0.504-0.157,0.779
			c0,1.115,0.908,2.024,2.024,2.024c0.035,0,0.068-0.001,0.103-0.004c0.058-0.003,0.044,0.045-0.03,0.11
			c-1.031,0.906-2.79,2.18-2.79,2.18s5.25-2.703,7.199-3.997c1.495-0.952,9.257-6.237,9.257-6.237s-6.422,2.581-9.257,1.156
			C47.637,14.476,42.083,13.771,42.083,13.771"/>
		<path fill="#010101" d="M46.466,16.396c0,0.92-0.744,1.666-1.665,1.666s-1.668-0.746-1.668-1.666c0-0.922,0.747-1.666,1.668-1.666
			S46.466,15.475,46.466,16.396"/>
		<path fill="#E2BF22" d="M46.134,16.396c0,0.735-0.597,1.332-1.333,1.332c-0.737,0-1.333-0.597-1.333-1.332
			c0-0.736,0.596-1.334,1.333-1.334C45.537,15.063,46.134,15.66,46.134,16.396"/>
		<path fill="#010101" d="M45.468,16.396c0,0.368-0.297,0.666-0.667,0.666c-0.368,0-0.667-0.298-0.667-0.666
			c0-0.369,0.299-0.666,0.667-0.666C45.171,15.73,45.468,16.027,45.468,16.396"/>
		<path fill="#010101" d="M49.283,11.629c-4.133,3.867-4.014-3.438-18.318,3.317c-4.605,2.176-8.933,9.149-12.66,16.931
			C35.8,3.697,47.578,20.551,49.754,11.832L49.283,11.629z"/>
		<path fill="#152446" d="M67.094,64.084c-0.069-1.652-0.192-3.118-0.299-4.383c-0.007-0.1-0.02-0.201-0.031-0.303
			c0.48,0.49,1.17,0.795,2.525,1.355c-1.952-2.039-2.646-2.837-3.633-5.318l0,0c-0.631-1.598-1.392-3.096-1.945-4.117
			c-1.617-2.986-3.444-5.572-4.765-6.75c-2.612-2.334-6.012-3.528-15.064-6.357c-2.66-0.832-4.165-2.08-4.597-3.813
			c-0.369-1.463,0.098-3.029,0.404-4.063c0.258-0.868,0.438-1.09,1.363-1.868c0.928-0.78,9.317-6.38,11.465-10.405
			c0.847-1.592-0.258-1.072-0.892-0.203c-2.988,4.082-10.246,9.256-15.214,10.313c0.044,0.006,0.089,0.012,0.13,0.014l0,0
			c0.367,0.036,0.683,0.049,0.96,0.066c0.004,0,0.011,0,0.015,0.002c0.025,0,0.049,0.002,0.072,0.006l0.029,0.002
			c0.018,0,0.039,0.002,0.059,0.004c0.01,0,0.021,0.001,0.03,0.002c0.018,0,0.036,0.002,0.052,0.004
			c0.011,0,0.023,0.002,0.035,0.002c0.015,0.002,0.033,0.006,0.047,0.006c0.012,0.002,0.022,0.004,0.035,0.006
			c0.014,0.002,0.03,0.002,0.043,0.004c0.014,0.001,0.023,0.003,0.037,0.004c0.013,0.003,0.027,0.006,0.041,0.008
			c0.012,0.002,0.023,0.004,0.035,0.006c0.012,0.001,0.026,0.002,0.04,0.005c0.01,0.003,0.022,0.004,0.032,0.008
			c0.014,0.003,0.027,0.006,0.038,0.008l0.036,0.006c0.012,0.004,0.022,0.006,0.033,0.011c0.013,0.004,0.024,0.005,0.035,0.008
			c0.012,0.003,0.022,0.008,0.036,0.01c0.008,0.005,0.021,0.008,0.028,0.01c0.014,0.003,0.024,0.008,0.034,0.012
			c0.011,0.004,0.022,0.007,0.03,0.01c0.011,0.006,0.024,0.01,0.033,0.016c0.009,0.003,0.018,0.006,0.03,0.011
			c0.009,0.007,0.02,0.011,0.031,0.015c0.009,0.005,0.018,0.01,0.026,0.015c0.012,0.004,0.021,0.011,0.033,0.017
			c0.007,0.006,0.018,0.009,0.025,0.014c0.008,0.008,0.02,0.014,0.03,0.019c0.009,0.006,0.015,0.012,0.024,0.017
			c0.011,0.006,0.02,0.016,0.029,0.021c0.009,0.006,0.016,0.014,0.023,0.018c0.01,0.008,0.019,0.016,0.03,0.023
			c0.007,0.006,0.015,0.015,0.023,0.02c0.009,0.009,0.019,0.02,0.027,0.025c0.006,0.008,0.015,0.014,0.02,0.021
			c0.012,0.012,0.021,0.02,0.029,0.031c0.007,0.005,0.014,0.014,0.02,0.021c0.01,0.01,0.017,0.021,0.028,0.032
			c0.005,0.009,0.01,0.015,0.017,0.024c0.011,0.013,0.021,0.027,0.029,0.039c0.005,0.009,0.011,0.013,0.016,0.021
			c0.016,0.021,0.028,0.043,0.042,0.066c0.452,0.742-4.103,7.551,4.648,10.285c8.748,2.734,12.227,3.945,14.695,6.147
			c2.467,2.208,7.165,10.255,7.518,14.474c0.354,4.211,0.859,10.299-0.908,18.237c-1.5,6.764-6.598,17.855-15.163,21.26
			c2.546,0,7.926-3.809,11.166-8.959c0.11,1.369,0.8,2.648,1.701,4.303c-0.321-2.705,0.119-7.172,1.325-10.299
			c0.453-1.121,0.822-2.164,1.107-3.063c0.254,0.779,0.904,1.59,1.8,2.324c-0.932-1.945-0.689-6.172-0.361-8.465v0.002
			c0.167-1.045,0.3-2.053,0.401-3.029c0.368,0.984,1.141,1.756,2.282,2.217c-1.812-2.572-1.88-6.08-2.057-10.23V64.084z"/>
		<path fill="#7A878E" d="M65.799,59.785c-0.353-4.219-5.05-12.266-7.518-14.474c-2.468-2.202-5.947-3.413-14.695-6.147
			c-8.751-2.734-4.197-9.542-4.648-10.285c-0.436-0.72-1.126-0.567-2.397-0.693c1.104,0.145,1.394,1.055,0.9,2.246
			c-1.248,3.013-2.001,7.232,2.377,9.731c3.983,2.273,9.769,4.265,13.606,6.233c2.54,1.297,5.65,7.295,6.441,13.576
			c0.793,6.28-1.287,7.918-1.675,7.647c-0.502-0.359-1.105-0.713-1.745-1.041c3.243,3.768,5.21,8.656,5.21,14.004
			c0,4.967-1.698,9.541-4.54,13.188c4.168-4.799,6.775-11.236,7.774-15.748C66.658,70.086,66.153,63.999,65.799,59.785"/>
		<path fill="#152446" d="M54.137,66.594c-3.506-3.506-8.312-5.702-13.624-5.803c-0.32,0.451-0.95,1.499-1.398,3.237
			C41.813,63.848,48.685,63.741,54.137,66.594"/>
		<path fill="#7A878E" d="M29.439,88.633c1.544-0.605,2.912-1.426,4.103-2.332c-2.146-2.268-8.034-9.92-4.049-22.414
			c-2.43,1.549-4.505,3.615-6.063,6.047C21.344,81.1,28.907,88.151,29.439,88.633"/>
		<path fill="#7A878E" d="M39.231,79.805c-3.803-10.547-2.001-16.453-0.673-18.956c-2.455,0.189-4.788,0.828-6.917,1.84
			c-4.996,13.105,1.219,20.646,3.145,22.57C37.26,83.04,38.757,80.639,39.231,79.805"/>
		<path fill="#152446" d="M38.782,65.692c-0.231,1.625-0.277,3.67,0.079,6.172c3.1-0.24,14.369-0.533,21.012,6.895
			c-0.219-2.316-0.837-4.514-1.782-6.531C53.515,65.038,41.634,65.471,38.782,65.692"/>
		<path fill="#152446" d="M39.139,73.487c0.332,1.68,0.84,3.539,1.567,5.59c2.312,0.129,10.858,1.178,17.699,9.277
			c0.897-2.127,1.435-4.434,1.536-6.861C54.278,73.165,42.435,73.28,39.139,73.487"/>
		<path fill="#7A878E" d="M27.679,89.196c-1.788-1.834-6.204-7.176-6.255-15.182c-0.734,2.074-1.138,4.299-1.138,6.627
			c0,3.201,0.766,6.232,2.117,8.908C24.319,89.764,26.08,89.606,27.679,89.196"/>
		<path fill="#010101" d="M55.056,87.194c-1.042,2.682-4.176,9.197-11.119,12.934c5.932-1.164,10.92-4.969,13.689-10.15
			C56.797,88.944,55.937,88.012,55.056,87.194"/>
		<path fill="#010101" d="M47.414,82.344c-3.181-1.273-5.802-1.572-6.821-1.635c-0.621,1.059-2.343,3.736-5.146,6.139
			c-0.013,0.014-0.018,0.031-0.032,0.047c-0.082,0.102-0.184,0.172-0.295,0.227c-2.722,2.238-6.402,4.164-11.022,4.164
			c-0.237,0-0.48-0.016-0.723-0.023c1.4,2.203,3.222,4.113,5.356,5.621C39.285,95.94,45.797,85.305,47.414,82.344"/>
		<path fill="#010101" d="M53.738,86.055c-1.623-1.311-3.265-2.299-4.819-3.051c-1.52,2.869-7.618,13.139-18.007,15.215
			c2.371,1.25,5.022,2.031,7.836,2.23C48.961,97.684,52.913,88.333,53.738,86.055"/>
		<path fill="#E2BF22" d="M51.104,10.127l26.041-8.699L52.518,18.063c-1.491-0.176-3.235-1.353-3.235-1.353l8.995-6.114
			l-8.612,3.998C49.666,14.594,50.99,12.654,51.104,10.127"/>
		<path fill="#7A878E" d="M43.962,57.893c-7.568-1.285-15.422,2.293-19.824,8.239c3.957-4.321,9.642-7.039,15.953-7.039
			c3.132,0,6.107,0.673,8.797,1.87c-3.071-6.918-0.98-11.524-8.383-14.489c-16.612-6.661-11.38-16.401-8.237-25.767
			c-1.049,0.316-2.309,1.021-2.588,1.813c-1.575,4.463-3.21,9.077-2.363,13.566c0.468,2.496,1.691,4.748,3.632,6.688
			c2.085,2.086,4.985,3.857,8.871,5.413c4.143,1.66,4.716,3.876,5.429,7.253C45.955,58.813,45.336,58.125,43.962,57.893"/>
	</g>
	<g>
		<g>
			<g>
				<path fill="#A5B8BE" d="M131.355,117.049h-3.734l-6.377-10.314v10.314h-3.552v-15.021h4.632l5.479,8.602v-8.602h3.554V117.049z"
					/>
				<path fill="#A5B8BE" d="M141.848,115.852c-0.195,0.146-0.438,0.326-0.728,0.533c-0.289,0.207-0.558,0.373-0.818,0.494
					c-0.354,0.162-0.724,0.283-1.109,0.355c-0.384,0.078-0.803,0.117-1.261,0.117c-1.077,0-1.978-0.33-2.703-1
					c-0.728-0.662-1.091-1.518-1.091-2.549c0-0.828,0.186-1.502,0.555-2.029c0.371-0.527,0.895-0.939,1.574-1.244
					c0.672-0.299,1.508-0.518,2.502-0.643c0.996-0.127,2.029-0.225,3.1-0.285v-0.061c0-0.623-0.257-1.055-0.769-1.295
					c-0.512-0.242-1.265-0.357-2.259-0.357c-0.598,0-1.238,0.107-1.919,0.316c-0.679,0.209-1.166,0.373-1.463,0.49h-0.331v-2.732
					c0.382-0.102,1.006-0.221,1.87-0.361s1.732-0.207,2.6-0.207c2.065,0,3.554,0.32,4.475,0.951
					c0.919,0.635,1.375,1.635,1.375,2.992v7.711h-3.601V115.852z M141.848,114.088v-2.355c-0.49,0.041-1.022,0.098-1.594,0.166
					c-0.571,0.066-1.004,0.148-1.302,0.246c-0.363,0.117-0.641,0.281-0.832,0.496c-0.194,0.221-0.289,0.508-0.289,0.859
					c0,0.238,0.021,0.428,0.061,0.574c0.04,0.146,0.141,0.287,0.301,0.426c0.156,0.129,0.341,0.23,0.557,0.293
					c0.215,0.063,0.549,0.098,1.008,0.098c0.362,0,0.73-0.076,1.106-0.223C141.24,114.522,141.568,114.331,141.848,114.088z"/>
				<path fill="#A5B8BE" d="M160.173,117.049h-3.644v-5.621c0-0.455-0.023-0.91-0.069-1.361c-0.045-0.461-0.127-0.793-0.244-1.006
					c-0.13-0.254-0.33-0.43-0.589-0.547c-0.257-0.117-0.621-0.17-1.083-0.17c-0.33,0-0.667,0.051-1.004,0.162
					c-0.341,0.105-0.71,0.275-1.104,0.514v8.029h-3.645v-11.328h3.645v1.25c0.642-0.508,1.262-0.895,1.857-1.162
					c0.593-0.27,1.256-0.406,1.981-0.406c1.223,0,2.177,0.359,2.868,1.074c0.684,0.709,1.031,1.775,1.031,3.199V117.049z"/>
				<path fill="#A5B8BE" d="M170.757,116.948c-0.39,0.102-0.802,0.182-1.238,0.24c-0.439,0.059-0.974,0.084-1.606,0.084
					c-1.41,0-2.464-0.287-3.152-0.859c-0.692-0.572-1.037-1.547-1.037-2.936v-5.295h-1.491v-2.461h1.491v-3.24h3.645v3.24h3.388
					v2.461h-3.388v4.021c0,0.395,0.002,0.742,0.011,1.043c0.007,0.293,0.058,0.559,0.158,0.799c0.097,0.232,0.262,0.418,0.501,0.559
					c0.235,0.139,0.583,0.205,1.04,0.205c0.19,0,0.436-0.039,0.74-0.121c0.303-0.08,0.521-0.15,0.64-0.223h0.299V116.948z"/>
				<path fill="#A5B8BE" d="M184.087,112.057h-8.313c0.054,0.887,0.392,1.564,1.011,2.035c0.627,0.473,1.539,0.711,2.75,0.711
					c0.771,0,1.513-0.139,2.232-0.42c0.719-0.271,1.289-0.564,1.705-0.885h0.406v2.914c-0.821,0.33-1.596,0.57-2.32,0.717
					c-0.731,0.146-1.533,0.223-2.415,0.223c-2.274,0-4.017-0.51-5.229-1.535c-1.21-1.023-1.812-2.479-1.812-4.367
					c0-1.869,0.573-3.35,1.721-4.447c1.145-1.092,2.714-1.641,4.717-1.641c1.84,0,3.226,0.469,4.152,1.404
					c0.933,0.928,1.393,2.266,1.393,4.02V112.057z M180.476,109.926c-0.021-0.758-0.208-1.332-0.563-1.717
					c-0.358-0.379-0.914-0.574-1.669-0.574c-0.698,0-1.273,0.182-1.724,0.547c-0.451,0.363-0.701,0.945-0.757,1.744H180.476z"/>
				<path fill="#A5B8BE" d="M196.499,113.458c0,1.17-0.522,2.113-1.571,2.83c-1.05,0.717-2.486,1.078-4.308,1.078
					c-1.015,0-1.926-0.096-2.746-0.283c-0.821-0.188-1.479-0.4-1.982-0.629v-2.982h0.338c0.176,0.127,0.392,0.268,0.626,0.416
					c0.241,0.148,0.576,0.313,1.018,0.49c0.374,0.15,0.802,0.287,1.278,0.395c0.48,0.115,0.993,0.166,1.535,0.166
					c0.715,0,1.245-0.072,1.583-0.232c0.345-0.16,0.514-0.391,0.514-0.701c0-0.279-0.099-0.48-0.297-0.604
					c-0.203-0.125-0.588-0.238-1.149-0.355c-0.276-0.061-0.635-0.125-1.1-0.201c-0.457-0.066-0.88-0.15-1.255-0.252
					c-1.028-0.268-1.792-0.691-2.292-1.256c-0.496-0.57-0.745-1.281-0.745-2.127c0-1.088,0.515-1.992,1.546-2.721
					c1.037-0.723,2.442-1.086,4.237-1.086c0.846,0,1.66,0.092,2.438,0.26c0.773,0.17,1.38,0.354,1.815,0.551v2.869h-0.311
					c-0.537-0.371-1.15-0.674-1.842-0.904c-0.686-0.236-1.383-0.348-2.093-0.348c-0.582,0-1.074,0.074-1.478,0.236
					c-0.397,0.162-0.599,0.391-0.599,0.689c0,0.27,0.087,0.475,0.271,0.615c0.182,0.143,0.611,0.285,1.285,0.42
					c0.369,0.076,0.765,0.152,1.193,0.221c0.428,0.074,0.857,0.16,1.289,0.266c0.951,0.25,1.661,0.641,2.117,1.174
					C196.27,111.993,196.499,112.657,196.499,113.458z"/>
				<path fill="#A5B8BE" d="M218.58,106.768c0,0.676-0.12,1.332-0.352,1.973c-0.239,0.639-0.573,1.184-1.008,1.619
					c-0.604,0.594-1.268,1.041-2.005,1.344c-0.737,0.299-1.656,0.455-2.749,0.455h-2.415v4.891h-3.875v-15.021h6.378
					c0.958,0,1.761,0.082,2.417,0.246c0.657,0.166,1.24,0.412,1.742,0.74c0.609,0.396,1.067,0.904,1.391,1.523
					C218.418,105.155,218.58,105.903,218.58,106.768z M214.576,106.854c0-0.426-0.118-0.785-0.346-1.092
					c-0.228-0.305-0.494-0.516-0.798-0.637c-0.399-0.162-0.798-0.256-1.176-0.268c-0.386-0.018-0.898-0.029-1.535-0.029h-0.67v4.49
					h1.109c0.665,0,1.205-0.041,1.634-0.123c0.428-0.072,0.783-0.234,1.071-0.479c0.248-0.219,0.43-0.471,0.544-0.773
					C214.518,107.649,214.576,107.284,214.576,106.854z"/>
				<path fill="#A5B8BE" d="M224.767,117.049h-3.645v-15.697h3.645V117.049z"/>
				<path fill="#A5B8BE" d="M235.048,115.852c-0.191,0.146-0.436,0.326-0.725,0.533c-0.288,0.207-0.564,0.373-0.817,0.494
					c-0.36,0.162-0.731,0.283-1.109,0.355c-0.386,0.078-0.803,0.117-1.265,0.117c-1.072,0-1.975-0.33-2.705-1
					c-0.724-0.662-1.089-1.518-1.089-2.549c0-0.828,0.185-1.502,0.554-2.029c0.37-0.527,0.898-0.939,1.577-1.244
					c0.673-0.299,1.51-0.518,2.502-0.643c0.998-0.127,2.029-0.225,3.098-0.285v-0.061c0-0.623-0.252-1.055-0.765-1.295
					c-0.512-0.242-1.267-0.357-2.259-0.357c-0.604,0-1.242,0.107-1.921,0.316s-1.168,0.373-1.461,0.49h-0.338v-2.732
					c0.385-0.102,1.014-0.221,1.877-0.361s1.728-0.207,2.594-0.207c2.067,0,3.561,0.32,4.48,0.951
					c0.913,0.635,1.376,1.635,1.376,2.992v7.711h-3.604V115.852z M235.048,114.088v-2.355c-0.492,0.041-1.023,0.098-1.597,0.166
					c-0.572,0.066-1.005,0.148-1.298,0.246c-0.365,0.117-0.639,0.281-0.836,0.496c-0.188,0.221-0.287,0.508-0.287,0.859
					c0,0.238,0.021,0.428,0.061,0.574c0.041,0.146,0.142,0.287,0.305,0.426c0.158,0.129,0.343,0.23,0.556,0.293
					c0.218,0.063,0.551,0.098,1.007,0.098c0.365,0,0.733-0.076,1.105-0.223S234.764,114.331,235.048,114.088z"/>
				<path fill="#A5B8BE" d="M245.733,104.104h-3.841v-2.752h3.841V104.104z M245.633,117.049h-3.639v-11.328h3.639V117.049z"/>
				<path fill="#A5B8BE" d="M258.901,113.458c0,1.17-0.52,2.113-1.568,2.83c-1.056,0.717-2.491,1.078-4.309,1.078
					c-1.015,0-1.926-0.096-2.745-0.283c-0.821-0.188-1.481-0.4-1.982-0.629v-2.982h0.332c0.182,0.127,0.396,0.268,0.632,0.416
					c0.241,0.148,0.576,0.313,1.019,0.49c0.374,0.15,0.802,0.287,1.277,0.395c0.476,0.115,0.988,0.166,1.535,0.166
					c0.715,0,1.24-0.072,1.582-0.232c0.346-0.16,0.515-0.391,0.515-0.701c0-0.279-0.102-0.48-0.3-0.604
					c-0.2-0.125-0.586-0.238-1.151-0.355c-0.271-0.061-0.633-0.125-1.096-0.201c-0.456-0.066-0.88-0.15-1.254-0.252
					c-1.028-0.268-1.796-0.691-2.292-1.256c-0.497-0.57-0.745-1.281-0.745-2.127c0-1.088,0.516-1.992,1.546-2.721
					c1.037-0.723,2.442-1.086,4.237-1.086c0.846,0,1.658,0.092,2.431,0.26c0.778,0.17,1.388,0.354,1.823,0.551v2.869h-0.312
					c-0.536-0.371-1.15-0.674-1.842-0.904c-0.686-0.236-1.386-0.348-2.094-0.348c-0.582,0-1.075,0.074-1.478,0.236
					c-0.399,0.162-0.599,0.391-0.599,0.689c0,0.27,0.087,0.475,0.271,0.615c0.182,0.143,0.61,0.285,1.283,0.42
					c0.369,0.076,0.767,0.152,1.195,0.221c0.428,0.074,0.855,0.16,1.288,0.266c0.951,0.25,1.661,0.641,2.117,1.174
					C258.674,111.993,258.901,112.657,258.901,113.458z"/>
				<path fill="#A5B8BE" d="M265.063,104.104h-3.848v-2.752h3.848V104.104z M264.962,117.049h-3.646v-11.328h3.646V117.049z"/>
				<path fill="#A5B8BE" d="M276.593,109.176h-0.323c-0.15-0.049-0.4-0.09-0.744-0.115c-0.344-0.031-0.629-0.041-0.856-0.041
					c-0.515,0-0.97,0.031-1.372,0.102c-0.393,0.066-0.82,0.176-1.275,0.34v7.588h-3.644v-11.328h3.644v1.664
					c0.798-0.691,1.495-1.145,2.087-1.371c0.587-0.225,1.132-0.334,1.628-0.334c0.127,0,0.27,0.002,0.433,0.006
					c0.161,0.012,0.304,0.018,0.424,0.035V109.176z"/>
				<path fill="#A5B8BE" d="M296.734,117.049h-3.646v-1.178c-0.621,0.512-1.207,0.887-1.751,1.129
					c-0.547,0.244-1.171,0.365-1.885,0.365c-1.377,0-2.48-0.531-3.306-1.596c-0.825-1.063-1.242-2.498-1.242-4.301
					c0-0.963,0.14-1.811,0.421-2.561c0.275-0.74,0.66-1.379,1.145-1.91c0.457-0.5,1.012-0.898,1.664-1.174
					c0.646-0.281,1.3-0.422,1.954-0.422c0.678,0,1.232,0.076,1.665,0.219c0.433,0.145,0.879,0.328,1.335,0.553v-4.822h3.646V117.049
					z M293.089,113.93v-5.564c-0.253-0.113-0.521-0.186-0.804-0.238c-0.281-0.045-0.538-0.066-0.773-0.066
					c-0.954,0-1.67,0.293-2.144,0.895c-0.478,0.598-0.716,1.422-0.716,2.477c0,1.117,0.188,1.922,0.573,2.42
					c0.384,0.506,0.996,0.756,1.843,0.756c0.33,0,0.679-0.063,1.048-0.188C292.486,114.297,292.809,114.133,293.089,113.93z"/>
				<path fill="#A5B8BE" d="M311.457,117.049h-3.643v-1.252c-0.67,0.512-1.287,0.9-1.841,1.166c-0.56,0.268-1.226,0.402-1.998,0.402
					c-1.25,0-2.213-0.361-2.891-1.082c-0.672-0.719-1.01-1.783-1.01-3.191v-7.371h3.644v5.619c0,0.572,0.017,1.047,0.056,1.424
					c0.035,0.383,0.121,0.695,0.259,0.943c0.126,0.256,0.32,0.43,0.577,0.549c0.26,0.117,0.62,0.168,1.086,0.168
					c0.308,0,0.653-0.051,1.028-0.168c0.379-0.119,0.739-0.285,1.09-0.508v-8.027h3.643V117.049z"/>
				<path fill="#A5B8BE" d="M335.776,102.028l-5.479,15.021h-4.339l-5.481-15.021h4.072l3.63,10.545l3.634-10.545H335.776z"/>
				<path fill="#A5B8BE" d="M349.32,111.387c0,1.865-0.546,3.336-1.632,4.406c-1.086,1.072-2.61,1.613-4.576,1.613
					c-1.964,0-3.489-0.541-4.574-1.613c-1.089-1.07-1.631-2.541-1.631-4.406c0-1.873,0.545-3.348,1.64-4.416
					c1.091-1.068,2.616-1.609,4.565-1.609c1.979,0,3.51,0.543,4.588,1.617C348.78,108.059,349.32,109.524,349.32,111.387z
					 M344.847,114.147c0.238-0.295,0.413-0.637,0.531-1.045c0.119-0.408,0.178-0.975,0.178-1.693c0-0.664-0.063-1.221-0.184-1.672
					c-0.118-0.449-0.287-0.813-0.504-1.082c-0.215-0.279-0.475-0.471-0.777-0.588c-0.303-0.109-0.629-0.168-0.979-0.168
					c-0.351,0-0.659,0.045-0.933,0.141c-0.272,0.09-0.533,0.285-0.782,0.563c-0.223,0.264-0.397,0.627-0.531,1.082
					c-0.131,0.455-0.195,1.029-0.195,1.725c0,0.617,0.057,1.16,0.172,1.613c0.113,0.453,0.281,0.818,0.504,1.092
					c0.217,0.264,0.472,0.453,0.771,0.574c0.299,0.121,0.641,0.184,1.025,0.184c0.33,0,0.645-0.059,0.943-0.166
					C344.388,114.59,344.64,114.405,344.847,114.147z"/>
				<path fill="#A5B8BE" d="M355.563,117.049h-3.643v-15.697h3.643V117.049z"/>
				<path fill="#A5B8BE" d="M362.63,117.049h-3.643v-15.697h3.643V117.049z"/>
				<path fill="#A5B8BE" d="M377.212,112.057h-8.318c0.057,0.887,0.395,1.564,1.016,2.035c0.622,0.473,1.539,0.711,2.749,0.711
					c0.769,0,1.513-0.139,2.23-0.42c0.722-0.271,1.288-0.564,1.706-0.885h0.402v2.914c-0.82,0.33-1.591,0.57-2.32,0.717
					c-0.725,0.146-1.528,0.223-2.41,0.223c-2.274,0-4.016-0.51-5.229-1.535c-1.211-1.023-1.816-2.479-1.816-4.367
					c0-1.869,0.572-3.35,1.721-4.447c1.148-1.092,2.721-1.641,4.719-1.641c1.843,0,3.228,0.469,4.156,1.404
					c0.928,0.928,1.395,2.266,1.395,4.02V112.057z M373.599,109.926c-0.02-0.758-0.211-1.332-0.566-1.717
					c-0.355-0.379-0.911-0.574-1.664-0.574c-0.699,0-1.275,0.182-1.727,0.547c-0.451,0.363-0.703,0.945-0.756,1.744H373.599z"/>
				<path fill="#A5B8BE" d="M384.885,113.045l2.584-7.324h3.736l-6.296,15.486h-3.942l1.8-4.244l-4.407-11.242h3.817
					L384.885,113.045z"/>
				<path fill="#A5B8BE" d="M400.318,111.821h-7.701v-2.902h7.701V111.821z"/>
				<path fill="#A5B8BE" d="M416.203,112.45c0,0.725-0.15,1.375-0.438,1.947c-0.295,0.572-0.696,1.047-1.208,1.42
					c-0.591,0.447-1.243,0.76-1.953,0.953c-0.708,0.189-1.61,0.279-2.699,0.279h-6.559v-15.021h5.832
					c1.211,0,2.098,0.041,2.659,0.121c0.562,0.074,1.118,0.256,1.669,0.535c0.571,0.289,0.999,0.678,1.277,1.16
					c0.279,0.488,0.419,1.045,0.419,1.674c0,0.723-0.192,1.369-0.576,1.924c-0.382,0.555-0.925,0.986-1.624,1.295v0.082
					c0.981,0.191,1.762,0.598,2.338,1.209C415.915,110.641,416.203,111.446,416.203,112.45z M411.237,106.276
					c0-0.248-0.063-0.496-0.188-0.752c-0.124-0.248-0.343-0.432-0.66-0.555c-0.281-0.105-0.635-0.166-1.053-0.172
					c-0.42-0.014-1.012-0.018-1.771-0.018h-0.365v3.18h0.605c0.613,0,1.134-0.014,1.566-0.035c0.43-0.02,0.768-0.084,1.018-0.195
					c0.35-0.158,0.578-0.359,0.688-0.605C411.183,106.877,411.237,106.592,411.237,106.276z M412.174,112.389
					c0-0.477-0.091-0.844-0.275-1.105c-0.184-0.262-0.498-0.453-0.94-0.578c-0.303-0.086-0.722-0.139-1.249-0.143
					c-0.531-0.004-1.086-0.014-1.665-0.014h-0.845v3.746h0.283c1.088,0,1.865-0.002,2.336-0.014c0.47-0.004,0.902-0.09,1.3-0.256
					c0.404-0.174,0.679-0.391,0.831-0.674C412.1,113.071,412.174,112.754,412.174,112.389z"/>
				<path fill="#A5B8BE" d="M425.748,115.852c-0.196,0.146-0.44,0.326-0.728,0.533c-0.289,0.207-0.561,0.373-0.818,0.494
					c-0.354,0.162-0.727,0.283-1.109,0.355c-0.383,0.078-0.804,0.117-1.261,0.117c-1.076,0-1.978-0.33-2.704-1
					c-0.729-0.662-1.091-1.518-1.091-2.549c0-0.828,0.185-1.502,0.555-2.029c0.372-0.527,0.897-0.939,1.576-1.244
					c0.671-0.299,1.506-0.518,2.501-0.643c0.997-0.127,2.027-0.225,3.099-0.285v-0.061c0-0.623-0.255-1.055-0.768-1.295
					c-0.51-0.242-1.264-0.357-2.26-0.357c-0.6,0-1.239,0.107-1.917,0.316c-0.68,0.209-1.169,0.373-1.466,0.49h-0.332v-2.732
					c0.383-0.102,1.01-0.221,1.872-0.361c0.865-0.141,1.731-0.207,2.599-0.207c2.067,0,3.557,0.32,4.477,0.951
					c0.917,0.635,1.374,1.635,1.374,2.992v7.711h-3.599V115.852z M425.748,114.088v-2.355c-0.494,0.041-1.023,0.098-1.596,0.166
					c-0.569,0.066-1.005,0.148-1.3,0.246c-0.365,0.117-0.642,0.281-0.833,0.496c-0.194,0.221-0.288,0.508-0.288,0.859
					c0,0.238,0.021,0.428,0.059,0.574c0.042,0.146,0.143,0.287,0.303,0.426c0.157,0.129,0.342,0.23,0.557,0.293
					c0.214,0.063,0.55,0.098,1.011,0.098c0.36,0,0.728-0.076,1.102-0.223C425.137,114.522,425.467,114.331,425.748,114.088z"/>
				<path fill="#A5B8BE" d="M436.333,117.049h-3.642v-15.697h3.642V117.049z"/>
				<path fill="#A5B8BE" d="M443.396,117.049h-3.643v-15.697h3.643V117.049z"/>
			</g>
			<g>
				<g>
					<path fill="#152446" d="M129.203,114.897h-3.734l-6.377-10.314v10.314h-3.552V99.875h4.632l5.479,8.602v-8.602h3.554V114.897z"
						/>
					<path fill="#152446" d="M139.696,113.7c-0.195,0.146-0.438,0.326-0.728,0.533c-0.289,0.207-0.558,0.373-0.818,0.494
						c-0.354,0.162-0.724,0.283-1.109,0.355c-0.384,0.078-0.803,0.117-1.261,0.117c-1.077,0-1.978-0.33-2.703-1
						c-0.728-0.662-1.091-1.518-1.091-2.549c0-0.828,0.186-1.502,0.555-2.029c0.371-0.527,0.895-0.939,1.574-1.244
						c0.672-0.299,1.508-0.518,2.502-0.643c0.996-0.127,2.029-0.225,3.1-0.285v-0.061c0-0.623-0.257-1.055-0.769-1.295
						c-0.512-0.242-1.265-0.357-2.259-0.357c-0.598,0-1.238,0.107-1.919,0.316c-0.679,0.209-1.166,0.373-1.463,0.49h-0.331v-2.732
						c0.382-0.102,1.006-0.221,1.87-0.361s1.732-0.207,2.6-0.207c2.065,0,3.554,0.32,4.475,0.951
						c0.919,0.635,1.375,1.635,1.375,2.992v7.711h-3.601V113.7z M139.696,111.936v-2.355c-0.49,0.041-1.022,0.098-1.594,0.166
						c-0.571,0.066-1.004,0.148-1.302,0.246c-0.363,0.117-0.641,0.281-0.832,0.496c-0.194,0.221-0.289,0.508-0.289,0.859
						c0,0.238,0.021,0.428,0.061,0.574c0.04,0.146,0.141,0.287,0.301,0.426c0.156,0.129,0.341,0.23,0.557,0.293
						c0.215,0.063,0.549,0.098,1.008,0.098c0.362,0,0.73-0.076,1.106-0.223C139.087,112.37,139.416,112.178,139.696,111.936z"/>
					<path fill="#152446" d="M158.021,114.897h-3.644v-5.621c0-0.455-0.023-0.91-0.069-1.361c-0.045-0.461-0.127-0.793-0.244-1.006
						c-0.13-0.254-0.33-0.43-0.589-0.547c-0.257-0.117-0.621-0.17-1.083-0.17c-0.33,0-0.667,0.051-1.004,0.162
						c-0.341,0.105-0.71,0.275-1.104,0.514v8.029h-3.645v-11.328h3.645v1.25c0.642-0.508,1.262-0.895,1.857-1.162
						c0.593-0.27,1.256-0.406,1.981-0.406c1.223,0,2.177,0.359,2.868,1.074c0.684,0.709,1.031,1.775,1.031,3.199V114.897z"/>
					<path fill="#152446" d="M168.605,114.795c-0.39,0.102-0.802,0.182-1.238,0.24c-0.439,0.059-0.974,0.084-1.606,0.084
						c-1.41,0-2.464-0.287-3.152-0.859c-0.692-0.572-1.037-1.547-1.037-2.936v-5.295h-1.491v-2.461h1.491v-3.24h3.645v3.24h3.388
						v2.461h-3.388v4.021c0,0.395,0.002,0.742,0.011,1.043c0.007,0.293,0.058,0.559,0.158,0.799
						c0.097,0.232,0.262,0.418,0.501,0.559c0.235,0.139,0.583,0.205,1.04,0.205c0.19,0,0.436-0.039,0.74-0.121
						c0.303-0.08,0.521-0.15,0.64-0.223h0.299V114.795z"/>
					<path fill="#152446" d="M181.935,109.905h-8.313c0.054,0.887,0.392,1.564,1.011,2.035c0.627,0.473,1.539,0.711,2.75,0.711
						c0.771,0,1.513-0.139,2.232-0.42c0.719-0.271,1.289-0.564,1.705-0.885h0.406v2.914c-0.821,0.33-1.596,0.57-2.32,0.717
						c-0.731,0.146-1.533,0.223-2.415,0.223c-2.274,0-4.017-0.51-5.229-1.535c-1.21-1.023-1.812-2.479-1.812-4.367
						c0-1.869,0.573-3.35,1.721-4.447c1.145-1.092,2.714-1.641,4.717-1.641c1.84,0,3.226,0.469,4.152,1.404
						c0.933,0.928,1.393,2.266,1.393,4.02V109.905z M178.323,107.774c-0.021-0.758-0.208-1.332-0.563-1.717
						c-0.358-0.379-0.914-0.574-1.669-0.574c-0.698,0-1.273,0.182-1.724,0.547c-0.451,0.363-0.701,0.945-0.757,1.744H178.323z"/>
					<path fill="#152446" d="M194.347,111.305c0,1.17-0.522,2.113-1.571,2.83c-1.05,0.717-2.486,1.078-4.308,1.078
						c-1.015,0-1.926-0.096-2.746-0.283c-0.821-0.188-1.479-0.4-1.982-0.629v-2.982h0.338c0.176,0.127,0.392,0.268,0.626,0.416
						c0.241,0.148,0.576,0.313,1.018,0.49c0.374,0.15,0.802,0.287,1.278,0.395c0.48,0.115,0.993,0.166,1.535,0.166
						c0.715,0,1.245-0.072,1.583-0.232c0.345-0.16,0.514-0.391,0.514-0.701c0-0.279-0.099-0.48-0.297-0.604
						c-0.203-0.125-0.588-0.238-1.149-0.355c-0.276-0.061-0.635-0.125-1.1-0.201c-0.457-0.066-0.88-0.15-1.255-0.252
						c-1.028-0.268-1.792-0.691-2.292-1.256c-0.496-0.57-0.745-1.281-0.745-2.127c0-1.088,0.515-1.992,1.546-2.721
						c1.037-0.723,2.442-1.086,4.237-1.086c0.846,0,1.66,0.092,2.438,0.26c0.773,0.17,1.38,0.354,1.815,0.551v2.869h-0.311
						c-0.537-0.371-1.15-0.674-1.842-0.904c-0.686-0.236-1.383-0.348-2.093-0.348c-0.582,0-1.074,0.074-1.478,0.236
						c-0.397,0.162-0.599,0.391-0.599,0.689c0,0.27,0.087,0.475,0.271,0.615c0.182,0.143,0.611,0.285,1.285,0.42
						c0.369,0.076,0.765,0.152,1.193,0.221c0.428,0.074,0.857,0.16,1.289,0.266c0.951,0.25,1.661,0.641,2.117,1.174
						C194.117,109.84,194.347,110.504,194.347,111.305z"/>
					<path fill="#152446" d="M216.427,104.616c0,0.676-0.12,1.332-0.352,1.973c-0.239,0.639-0.573,1.184-1.008,1.619
						c-0.604,0.594-1.268,1.041-2.005,1.344c-0.737,0.299-1.656,0.455-2.749,0.455h-2.415v4.891h-3.875V99.875h6.378
						c0.958,0,1.761,0.082,2.417,0.246c0.657,0.166,1.24,0.412,1.742,0.74c0.609,0.396,1.067,0.904,1.391,1.523
						C216.266,103.002,216.427,103.75,216.427,104.616z M212.424,104.702c0-0.426-0.118-0.785-0.346-1.092
						c-0.228-0.305-0.494-0.516-0.798-0.637c-0.399-0.162-0.798-0.256-1.176-0.268c-0.386-0.018-0.898-0.029-1.535-0.029h-0.67v4.49
						h1.109c0.665,0,1.205-0.041,1.634-0.123c0.428-0.072,0.783-0.234,1.071-0.479c0.248-0.219,0.43-0.471,0.544-0.773
						C212.366,105.497,212.424,105.131,212.424,104.702z"/>
					<path fill="#152446" d="M222.615,114.897h-3.645V99.2h3.645V114.897z"/>
					<path fill="#152446" d="M232.896,113.7c-0.191,0.146-0.436,0.326-0.725,0.533c-0.288,0.207-0.564,0.373-0.817,0.494
						c-0.36,0.162-0.731,0.283-1.109,0.355c-0.386,0.078-0.803,0.117-1.265,0.117c-1.072,0-1.975-0.33-2.705-1
						c-0.724-0.662-1.089-1.518-1.089-2.549c0-0.828,0.185-1.502,0.554-2.029c0.37-0.527,0.898-0.939,1.577-1.244
						c0.673-0.299,1.51-0.518,2.502-0.643c0.998-0.127,2.029-0.225,3.098-0.285v-0.061c0-0.623-0.252-1.055-0.765-1.295
						c-0.512-0.242-1.267-0.357-2.259-0.357c-0.604,0-1.242,0.107-1.921,0.316s-1.168,0.373-1.461,0.49h-0.338v-2.732
						c0.385-0.102,1.014-0.221,1.877-0.361s1.728-0.207,2.594-0.207c2.067,0,3.561,0.32,4.48,0.951
						c0.913,0.635,1.376,1.635,1.376,2.992v7.711h-3.604V113.7z M232.896,111.936v-2.355c-0.492,0.041-1.023,0.098-1.597,0.166
						c-0.572,0.066-1.005,0.148-1.298,0.246c-0.365,0.117-0.639,0.281-0.836,0.496c-0.188,0.221-0.287,0.508-0.287,0.859
						c0,0.238,0.021,0.428,0.061,0.574c0.041,0.146,0.142,0.287,0.305,0.426c0.158,0.129,0.343,0.23,0.556,0.293
						c0.218,0.063,0.551,0.098,1.007,0.098c0.365,0,0.733-0.076,1.105-0.223S232.611,112.178,232.896,111.936z"/>
					<path fill="#152446" d="M243.581,101.952h-3.841V99.2h3.841V101.952z M243.48,114.897h-3.639v-11.328h3.639V114.897z"/>
					<path fill="#152446" d="M256.749,111.305c0,1.17-0.52,2.113-1.568,2.83c-1.056,0.717-2.491,1.078-4.309,1.078
						c-1.015,0-1.926-0.096-2.745-0.283c-0.821-0.188-1.481-0.4-1.982-0.629v-2.982h0.332c0.182,0.127,0.396,0.268,0.632,0.416
						c0.241,0.148,0.576,0.313,1.019,0.49c0.374,0.15,0.802,0.287,1.277,0.395c0.476,0.115,0.988,0.166,1.535,0.166
						c0.715,0,1.24-0.072,1.582-0.232c0.346-0.16,0.515-0.391,0.515-0.701c0-0.279-0.102-0.48-0.3-0.604
						c-0.2-0.125-0.586-0.238-1.151-0.355c-0.271-0.061-0.633-0.125-1.096-0.201c-0.456-0.066-0.88-0.15-1.254-0.252
						c-1.028-0.268-1.796-0.691-2.292-1.256c-0.497-0.57-0.745-1.281-0.745-2.127c0-1.088,0.516-1.992,1.546-2.721
						c1.037-0.723,2.442-1.086,4.237-1.086c0.846,0,1.658,0.092,2.431,0.26c0.778,0.17,1.388,0.354,1.823,0.551v2.869h-0.312
						c-0.536-0.371-1.15-0.674-1.842-0.904c-0.686-0.236-1.386-0.348-2.094-0.348c-0.582,0-1.075,0.074-1.478,0.236
						c-0.399,0.162-0.599,0.391-0.599,0.689c0,0.27,0.087,0.475,0.271,0.615c0.182,0.143,0.61,0.285,1.283,0.42
						c0.369,0.076,0.767,0.152,1.195,0.221c0.428,0.074,0.855,0.16,1.288,0.266c0.951,0.25,1.661,0.641,2.117,1.174
						C256.521,109.84,256.749,110.504,256.749,111.305z"/>
					<path fill="#152446" d="M262.91,101.952h-3.848V99.2h3.848V101.952z M262.81,114.897h-3.646v-11.328h3.646V114.897z"/>
					<path fill="#152446" d="M274.44,107.024h-0.323c-0.15-0.049-0.4-0.09-0.744-0.115c-0.344-0.031-0.629-0.041-0.856-0.041
						c-0.515,0-0.97,0.031-1.372,0.102c-0.393,0.066-0.82,0.176-1.275,0.34v7.588h-3.644v-11.328h3.644v1.664
						c0.798-0.691,1.495-1.145,2.087-1.371c0.587-0.225,1.132-0.334,1.628-0.334c0.127,0,0.27,0.002,0.433,0.006
						c0.161,0.012,0.304,0.018,0.424,0.035V107.024z"/>
					<path fill="#152446" d="M294.582,114.897h-3.646v-1.178c-0.621,0.512-1.207,0.887-1.751,1.129
						c-0.547,0.244-1.171,0.365-1.885,0.365c-1.377,0-2.48-0.531-3.306-1.596c-0.825-1.063-1.242-2.498-1.242-4.301
						c0-0.963,0.14-1.811,0.421-2.561c0.275-0.74,0.66-1.379,1.145-1.91c0.457-0.5,1.012-0.898,1.664-1.174
						c0.646-0.281,1.3-0.422,1.954-0.422c0.678,0,1.232,0.076,1.665,0.219c0.433,0.145,0.879,0.328,1.335,0.553V99.2h3.646V114.897z
						 M290.937,111.778v-5.564c-0.253-0.113-0.521-0.186-0.804-0.238c-0.281-0.045-0.538-0.066-0.773-0.066
						c-0.954,0-1.67,0.293-2.144,0.895c-0.478,0.598-0.716,1.422-0.716,2.477c0,1.117,0.188,1.922,0.573,2.42
						c0.384,0.506,0.996,0.756,1.843,0.756c0.33,0,0.679-0.063,1.048-0.188C290.334,112.145,290.656,111.981,290.937,111.778z"/>
					<path fill="#152446" d="M309.305,114.897h-3.643v-1.252c-0.67,0.512-1.287,0.9-1.841,1.166
						c-0.56,0.268-1.226,0.402-1.998,0.402c-1.25,0-2.213-0.361-2.891-1.082c-0.672-0.719-1.01-1.783-1.01-3.191v-7.371h3.644v5.619
						c0,0.572,0.017,1.047,0.056,1.424c0.035,0.383,0.121,0.695,0.259,0.943c0.126,0.256,0.32,0.43,0.577,0.549
						c0.26,0.117,0.62,0.168,1.086,0.168c0.308,0,0.653-0.051,1.028-0.168c0.379-0.119,0.739-0.285,1.09-0.508v-8.027h3.643V114.897
						z"/>
					<path fill="#152446" d="M333.624,99.875l-5.479,15.021h-4.339l-5.481-15.021h4.072l3.63,10.545l3.634-10.545H333.624z"/>
					<path fill="#152446" d="M347.168,109.235c0,1.865-0.546,3.336-1.632,4.406c-1.086,1.072-2.61,1.613-4.576,1.613
						c-1.964,0-3.489-0.541-4.574-1.613c-1.089-1.07-1.631-2.541-1.631-4.406c0-1.873,0.545-3.348,1.64-4.416
						c1.091-1.068,2.616-1.609,4.565-1.609c1.979,0,3.51,0.543,4.588,1.617C346.628,105.907,347.168,107.372,347.168,109.235z
						 M342.694,111.995c0.238-0.295,0.413-0.637,0.531-1.045c0.119-0.408,0.178-0.975,0.178-1.693c0-0.664-0.063-1.221-0.184-1.672
						c-0.118-0.449-0.287-0.813-0.504-1.082c-0.215-0.279-0.475-0.471-0.777-0.588c-0.303-0.109-0.629-0.168-0.979-0.168
						c-0.351,0-0.659,0.045-0.933,0.141c-0.272,0.09-0.533,0.285-0.782,0.563c-0.223,0.264-0.397,0.627-0.531,1.082
						c-0.131,0.455-0.195,1.029-0.195,1.725c0,0.617,0.057,1.16,0.172,1.613c0.113,0.453,0.281,0.818,0.504,1.092
						c0.217,0.264,0.472,0.453,0.771,0.574c0.299,0.121,0.641,0.184,1.025,0.184c0.33,0,0.645-0.059,0.943-0.166
						C342.235,112.438,342.487,112.252,342.694,111.995z"/>
					<path fill="#152446" d="M353.411,114.897h-3.643V99.2h3.643V114.897z"/>
					<path fill="#152446" d="M360.478,114.897h-3.643V99.2h3.643V114.897z"/>
					<path fill="#152446" d="M375.06,109.905h-8.318c0.057,0.887,0.395,1.564,1.016,2.035c0.622,0.473,1.539,0.711,2.749,0.711
						c0.769,0,1.513-0.139,2.23-0.42c0.722-0.271,1.288-0.564,1.706-0.885h0.402v2.914c-0.82,0.33-1.591,0.57-2.32,0.717
						c-0.725,0.146-1.528,0.223-2.41,0.223c-2.274,0-4.016-0.51-5.229-1.535c-1.211-1.023-1.816-2.479-1.816-4.367
						c0-1.869,0.572-3.35,1.721-4.447c1.148-1.092,2.721-1.641,4.719-1.641c1.843,0,3.228,0.469,4.156,1.404
						c0.928,0.928,1.395,2.266,1.395,4.02V109.905z M371.446,107.774c-0.02-0.758-0.211-1.332-0.566-1.717
						c-0.355-0.379-0.911-0.574-1.664-0.574c-0.699,0-1.275,0.182-1.727,0.547c-0.451,0.363-0.703,0.945-0.756,1.744H371.446z"/>
					<path fill="#152446" d="M382.732,110.893l2.584-7.324h3.736l-6.296,15.486h-3.942l1.8-4.244l-4.407-11.242h3.817
						L382.732,110.893z"/>
					<path fill="#152446" d="M398.166,109.668h-7.701v-2.902h7.701V109.668z"/>
					<path fill="#152446" d="M414.051,110.297c0,0.725-0.15,1.375-0.438,1.947c-0.295,0.572-0.696,1.047-1.208,1.42
						c-0.591,0.447-1.243,0.76-1.953,0.953c-0.708,0.189-1.61,0.279-2.699,0.279h-6.559V99.875h5.832
						c1.211,0,2.098,0.041,2.659,0.121c0.562,0.074,1.118,0.256,1.669,0.535c0.571,0.289,0.999,0.678,1.277,1.16
						c0.279,0.488,0.419,1.045,0.419,1.674c0,0.723-0.192,1.369-0.576,1.924c-0.382,0.555-0.925,0.986-1.624,1.295v0.082
						c0.981,0.191,1.762,0.598,2.338,1.209C413.763,108.489,414.051,109.293,414.051,110.297z M409.085,104.124
						c0-0.248-0.063-0.496-0.188-0.752c-0.124-0.248-0.343-0.432-0.66-0.555c-0.281-0.105-0.635-0.166-1.053-0.172
						c-0.42-0.014-1.012-0.018-1.771-0.018h-0.365v3.18h0.605c0.613,0,1.134-0.014,1.566-0.035c0.43-0.02,0.768-0.084,1.018-0.195
						c0.35-0.158,0.578-0.359,0.688-0.605C409.03,104.725,409.085,104.44,409.085,104.124z M410.021,110.237
						c0-0.477-0.091-0.844-0.275-1.105c-0.184-0.262-0.498-0.453-0.94-0.578c-0.303-0.086-0.722-0.139-1.249-0.143
						c-0.531-0.004-1.086-0.014-1.665-0.014h-0.845v3.746h0.283c1.088,0,1.865-0.002,2.336-0.014c0.47-0.004,0.902-0.09,1.3-0.256
						c0.404-0.174,0.679-0.391,0.831-0.674C409.947,110.918,410.021,110.602,410.021,110.237z"/>
					<path fill="#152446" d="M423.596,113.7c-0.196,0.146-0.44,0.326-0.728,0.533c-0.289,0.207-0.561,0.373-0.818,0.494
						c-0.354,0.162-0.727,0.283-1.109,0.355c-0.383,0.078-0.804,0.117-1.261,0.117c-1.076,0-1.978-0.33-2.704-1
						c-0.729-0.662-1.091-1.518-1.091-2.549c0-0.828,0.185-1.502,0.555-2.029c0.372-0.527,0.897-0.939,1.576-1.244
						c0.671-0.299,1.506-0.518,2.501-0.643c0.997-0.127,2.027-0.225,3.099-0.285v-0.061c0-0.623-0.255-1.055-0.768-1.295
						c-0.51-0.242-1.264-0.357-2.26-0.357c-0.6,0-1.239,0.107-1.917,0.316c-0.68,0.209-1.169,0.373-1.466,0.49h-0.332v-2.732
						c0.383-0.102,1.01-0.221,1.872-0.361c0.865-0.141,1.731-0.207,2.599-0.207c2.067,0,3.557,0.32,4.477,0.951
						c0.917,0.635,1.374,1.635,1.374,2.992v7.711h-3.599V113.7z M423.596,111.936v-2.355c-0.494,0.041-1.023,0.098-1.596,0.166
						c-0.569,0.066-1.005,0.148-1.3,0.246c-0.365,0.117-0.642,0.281-0.833,0.496c-0.194,0.221-0.288,0.508-0.288,0.859
						c0,0.238,0.021,0.428,0.059,0.574c0.042,0.146,0.143,0.287,0.303,0.426c0.157,0.129,0.342,0.23,0.557,0.293
						c0.214,0.063,0.55,0.098,1.011,0.098c0.36,0,0.728-0.076,1.102-0.223C422.984,112.37,423.314,112.178,423.596,111.936z"/>
					<path fill="#152446" d="M434.181,114.897h-3.642V99.2h3.642V114.897z"/>
					<path fill="#152446" d="M441.243,114.897h-3.643V99.2h3.643V114.897z"/>
				</g>
			</g>
		</g>
		<g>
			<g>
				<path fill="#112445" d="M190.057,14.401v77.486h-19.918l-35.197-49.457l0.028,49.457h-19.43V14.401h19.921l35.17,48.935V14.401
					H190.057 M191.19,13.268h-1.134H170.63h-1.134v1.134v45.415L136.381,13.74l-0.339-0.472h-0.582h-19.921h-1.134v1.134v77.486
					v1.134h1.134h19.43h1.134l0-1.135l-0.026-45.904l33.138,46.562l0.339,0.477h0.585h19.918h1.134v-1.134V14.401V13.268
					L191.19,13.268z"/>
			</g>
			<g>
				<path fill="#112445" d="M246.141,14.4c21.024,0,33.692,8.854,33.692,25.682c0,16.714-12.668,25.463-33.692,25.463h-20.295v26.34
					h-19.921V14.4H246.141 M225.846,50.705h19.802c9.714,0,14.261-4.203,14.261-10.734c0-6.643-4.547-10.738-14.261-10.738h-19.802
					V50.705 M246.141,13.267h-40.216h-1.134V14.4v77.485v1.134h1.134h19.921h1.134v-1.134V66.679h19.161
					c22.133,0,34.826-9.694,34.826-26.597C280.967,23.041,268.273,13.267,246.141,13.267L246.141,13.267z M226.979,30.366h18.668
					c5.988,0,13.127,1.667,13.127,9.604c0,7.935-7.139,9.601-13.127,9.601h-18.668V30.366L226.979,30.366z"/>
			</g>
			<g>
				<path fill="#112445" d="M368.988,14.401l-32.092,77.486h-19.924l-32.096-77.486h22.134l19.922,51.812l19.921-51.812H368.988
					 M370.686,13.268h-1.697h-22.135h-0.779l-0.279,0.727l-18.862,49.06l-18.863-49.06l-0.28-0.727h-0.778h-22.134h-1.697
					l0.649,1.568l32.096,77.485l0.29,0.7h0.758h19.924h0.758l0.29-0.7l32.092-77.485L370.686,13.268L370.686,13.268z"/>
			</g>
			<g>
				<path fill="#112445" d="M412.65,14.401c17.831,0,28.65,7.084,28.65,19.036c0,7.529-3.934,12.179-11.19,16.163
					c9.837,3.765,14.757,10.074,14.757,19.042c0,7.082-2.954,12.725-8.975,16.939c-6.028,4.207-13.283,6.303-22.012,6.303H375.76
					V14.401H412.65 M395.68,43.625h16.603c6.516,0,10.573-2.991,10.573-7.749c0-4.761-3.812-7.526-10.573-7.526H395.68V43.625
					 M395.68,77.055h17.584c8.365,0,12.544-3.098,12.544-9.303c0-5.866-4.057-9.516-12.544-9.516H395.68V77.055 M412.65,13.268
					H375.76h-1.134v1.134v77.484v1.134h1.134h38.121c8.975,0,16.387-2.128,22.66-6.507c6.277-4.395,9.46-10.406,9.46-17.869
					c0-8.731-4.489-15.185-13.353-19.211c6.833-4.254,9.786-9.135,9.786-15.994C442.435,20.808,431.301,13.268,412.65,13.268
					L412.65,13.268z M396.813,29.483h15.469c3.525,0,9.439,0.831,9.439,6.393c0,4.081-3.617,6.615-9.439,6.615h-15.469V29.483
					L396.813,29.483z M396.813,59.37h16.45c5.205,0,11.41,1.454,11.41,8.382c0,3.507-1.183,8.169-11.41,8.169h-16.45V59.37
					L396.813,59.37z"/>
			</g>
		</g>
		<g>
			<g>
				<polygon fill="#A5B8BE" points="173.704,93.305 136.355,40.826 136.385,93.305 119.791,93.305 119.791,18.653 137.568,18.653 
					174.882,70.572 174.882,18.653 191.474,18.653 191.474,93.305 				"/>
				<path fill="#A5B8BE" d="M190.057,20.07v71.817h-15.622l-34.35-48.266l-5.149-7.235l0.005,8.88l0.026,46.621h-13.759V20.07
					h15.633l34.322,47.755l5.136,7.146v-8.801V20.07H190.057 M192.891,17.236h-19.426v48.936l-35.17-48.936h-19.921v77.486h19.43
					l-0.028-49.457l35.197,49.457h19.918V17.236L192.891,17.236z"/>
				<path fill="#A5B8BE" d="M210.177,93.303V18.652h38.799c20.813,0,32.275,8.617,32.275,24.264
					c0,15.506-11.463,24.047-32.275,24.047h-21.713v26.34H210.177z M227.263,54.957h21.22c9.964,0,15.678-4.429,15.678-12.152
					c0-4.54-2.036-12.156-15.678-12.156h-21.22V54.957z"/>
				<path fill="#A5B8BE" d="M248.976,20.069c11.524,0,30.857,2.968,30.857,22.847c0,19.689-19.333,22.629-30.857,22.629h-20.295
					h-2.835v2.835v23.505h-14.252V20.069H248.976 M225.846,56.374h2.835h19.802c10.704,0,17.096-5.072,17.096-13.569
					c0-4.081-1.666-13.573-17.096-13.573h-19.802h-2.835v2.834V53.54V56.374 M248.976,17.235h-40.216V94.72h19.921V68.38h20.295
					c21.024,0,33.692-8.75,33.692-25.464C282.668,26.088,270,17.235,248.976,17.235L248.976,17.235z M228.681,53.54V32.067h19.802
					c9.714,0,14.261,4.096,14.261,10.738c0,6.531-4.547,10.734-14.261,10.734H228.681L228.681,53.54z"/>
				<polygon fill="#A5B8BE" points="320.755,93.305 289.833,18.653 308.872,18.653 329.768,72.998 350.662,18.653 369.702,18.653 
					338.784,93.305 				"/>
				<path fill="#A5B8BE" d="M367.581,20.07l-29.744,71.817h-16.135L291.954,20.07h15.944l19.224,49.996l2.646,6.881l2.646-6.881
					l19.223-49.996H367.581 M371.823,17.236h-22.135l-19.921,51.813l-19.922-51.813h-22.134l32.096,77.486h19.924L371.823,17.236
					L371.823,17.236z"/>
				<path fill="#A5B8BE" d="M380.012,93.303v-74.65h35.474c17.053,0,27.233,6.586,27.233,17.619c0,6.521-3.029,10.843-10.455,14.921
					l-2.683,1.472l2.857,1.094c9.317,3.565,13.847,9.362,13.847,17.719c0,6.674-2.738,11.835-8.37,15.778
					c-5.83,4.068-12.765,6.047-21.199,6.047H380.012z M397.098,81.307h19.001c11.539,0,13.961-5.829,13.961-10.72
					c0-6.948-5.088-10.934-13.961-10.934h-19.001V81.307z M397.098,47.877h18.02c7.284,0,11.99-3.598,11.99-9.167
					c0-5.6-4.482-8.944-11.99-8.944h-18.02V47.877z"/>
				<path fill="#A5B8BE" d="M415.485,20.07c16.165,0,25.815,6.057,25.815,16.202c0,5.925-2.815,9.888-9.72,13.678l-5.364,2.945
					l5.716,2.187c8.704,3.331,12.935,8.694,12.935,16.396c0,6.178-2.54,10.959-7.762,14.615c-5.586,3.897-12.255,5.792-20.39,5.792
					H381.43V20.07H415.485 M395.68,49.294h2.835h16.603c8.145,0,13.408-4.154,13.408-10.583c0-5.009-3.522-10.361-13.408-10.361
					h-16.603h-2.835v2.834v15.275V49.294 M395.68,82.725h2.835h17.584c13.381,0,15.379-7.604,15.379-12.138
					c0-7.733-5.749-12.351-15.379-12.351h-17.584h-2.835v2.834V79.89V82.725 M415.485,17.236h-36.891V94.72h38.121
					c8.729,0,15.983-2.096,22.012-6.303c6.021-4.215,8.975-9.857,8.975-16.939c0-8.969-4.92-15.278-14.757-19.043
					c7.257-3.984,11.19-8.634,11.19-16.163C444.136,24.32,433.316,17.236,415.485,17.236L415.485,17.236z M398.515,46.459V31.184
					h16.603c6.762,0,10.573,2.766,10.573,7.526c0,4.758-4.058,7.749-10.573,7.749H398.515L398.515,46.459z M398.515,79.89V61.071
					h17.584c8.487,0,12.544,3.65,12.544,9.517c0,6.205-4.179,9.303-12.544,9.303H398.515L398.515,79.89z"/>
			</g>
			<g>
				<g>
					<g>
						<polygon fill="#112445" points="170.869,90.47 133.521,37.991 133.551,90.47 116.956,90.47 116.956,15.819 134.733,15.819 
							172.048,67.737 172.048,15.819 188.639,15.819 188.639,90.47 						"/>
						<path fill="#FFFFFF" d="M187.222,17.236v71.816H171.6l-34.35-48.265l-5.149-7.235l0.005,8.88l0.026,46.62h-13.759V17.236
							h15.633l34.322,47.755l5.136,7.146v-8.801V17.236H187.222 M190.057,14.401H170.63v48.935l-35.17-48.935h-19.921v77.486h19.43
							l-0.028-49.457l35.197,49.457h19.918V14.401L190.057,14.401z"/>
					</g>
					<g>
						<path fill="#112445" d="M207.342,90.468v-74.65h38.798c20.813,0,32.275,8.617,32.275,24.264
							c0,15.506-11.463,24.046-32.275,24.046h-21.712v26.34H207.342z M224.428,52.123h21.219c9.964,0,15.678-4.429,15.678-12.152
							c0-4.54-2.036-12.156-15.678-12.156h-21.219V52.123z"/>
						<path fill="#FFFFFF" d="M246.141,17.235c11.524,0,30.857,2.968,30.857,22.847c0,19.689-19.333,22.628-30.857,22.628h-20.295
							h-2.834v2.835V89.05h-14.252V17.235H246.141 M223.011,53.54h2.834h19.802c10.704,0,17.096-5.072,17.096-13.569
							c0-4.081-1.666-13.573-17.096-13.573h-19.802h-2.834v2.834v21.473V53.54 M246.141,14.4h-40.216v77.485h19.921v-26.34h20.295
							c21.024,0,33.692-8.75,33.692-25.463C279.833,23.254,267.165,14.4,246.141,14.4L246.141,14.4z M225.846,50.705V29.232h19.802
							c9.714,0,14.261,4.096,14.261,10.738c0,6.531-4.547,10.734-14.261,10.734H225.846L225.846,50.705z"/>
					</g>
					<g>
						<polygon fill="#112445" points="317.92,90.47 286.998,15.819 306.037,15.819 326.933,70.163 347.827,15.819 366.867,15.819 
							335.949,90.47 						"/>
						<path fill="#FFFFFF" d="M364.746,17.236l-29.744,71.816h-16.135l-29.748-71.816h15.944l19.224,49.995l2.646,6.881l2.646-6.881
							l19.223-49.995H364.746 M368.988,14.401h-22.135l-19.921,51.812l-19.922-51.812h-22.134l32.096,77.486h19.924L368.988,14.401
							L368.988,14.401z"/>
					</g>
					<g>
						<path fill="#112445" d="M377.177,90.468V15.819h35.474c17.053,0,27.233,6.586,27.233,17.619
							c0,6.521-3.029,10.843-10.455,14.921l-2.683,1.472l2.857,1.094c9.317,3.565,13.847,9.361,13.847,17.719
							c0,6.674-2.738,11.835-8.37,15.778c-5.83,4.068-12.765,6.047-21.199,6.047H377.177z M394.263,78.472h19.001
							c11.539,0,13.961-5.829,13.961-10.72c0-6.948-5.088-10.934-13.961-10.934h-19.001V78.472z M394.263,45.042h18.02
							c7.284,0,11.99-3.598,11.99-9.167c0-5.6-4.482-8.944-11.99-8.944h-18.02V45.042z"/>
						<path fill="#FFFFFF" d="M412.65,17.236c16.165,0,25.815,6.057,25.815,16.202c0,5.925-2.815,9.888-9.72,13.678l-5.364,2.945
							l5.716,2.187c8.704,3.331,12.935,8.694,12.935,16.395c0,6.178-2.54,10.959-7.762,14.615
							c-5.586,3.897-12.255,5.792-20.39,5.792h-35.286V17.236H412.65 M392.845,46.459h2.835h16.603
							c8.145,0,13.408-4.154,13.408-10.583c0-5.009-3.522-10.361-13.408-10.361H395.68h-2.835v2.834v15.275V46.459 M392.845,79.89
							h2.835h17.584c13.381,0,15.379-7.604,15.379-12.138c0-7.733-5.749-12.351-15.379-12.351H395.68h-2.835v2.834v18.819V79.89
							 M412.65,14.401H375.76v77.484h38.121c8.729,0,15.983-2.096,22.012-6.303c6.021-4.215,8.975-9.857,8.975-16.939
							c0-8.968-4.92-15.278-14.757-19.042c7.257-3.984,11.19-8.634,11.19-16.163C441.301,21.485,430.481,14.401,412.65,14.401
							L412.65,14.401z M395.68,43.625V28.35h16.603c6.762,0,10.573,2.766,10.573,7.526c0,4.758-4.058,7.749-10.573,7.749H395.68
							L395.68,43.625z M395.68,77.055V58.236h17.584c8.487,0,12.544,3.65,12.544,9.516c0,6.205-4.179,9.303-12.544,9.303H395.68
							L395.68,77.055z"/>
					</g>
				</g>
			</g>
		</g>
	</g>
</g>
</svg>
